<svg width="765.6" height="1972.7" viewBox="0 0 765.6 1972.7" xmlns="http://www.w3.org/2000/svg" xmlns:xlink="http://www.w3.org/1999/xlink" overflow="hidden"><defs></defs><g><g><rect x="0" y="3.1" width="536" height="383.7" fill="#5B5B5B"/><rect x="35.1" y="34.9" width="472.7" height="320.2" fill="#ADADAD"/><rect x="61.1" y="100.9" width="183.9" height="49.2" fill="#AD0E13"/><g><rect x="93.5" y="34.9" width="14.7" height="65.5" fill="#3C3C3C"/><rect x="128.8" y="34.9" width="14.7" height="65.5" fill="#3C3C3C"/><rect x="167.8" y="34.9" width="14.7" height="65.5" fill="#3C3C3C"/><rect x="203.1" y="34.9" width="14.7" height="65.5" fill="#3C3C3C"/></g><rect x="440.3" y="34.9" width="14.7" height="320.2" fill="#3C3C3C"/><rect x="405" y="34.9" width="14.7" height="320.2" fill="#3C3C3C"/><rect x="298.3" y="100.9" width="183.9" height="49.2" fill="#FFFFFF"/><g><rect x="330.7" y="34.9" width="14.7" height="65.5" fill="#3C3C3C"/><rect x="366.1" y="34.9" width="14.7" height="65.5" fill="#3C3C3C"/></g><g><rect x="84.3" y="179.1" width="9.9" height="22.5" fill="#AD0E13"/><rect x="44.2" y="179.1" width="9.9" height="22.5" fill="#AD0E13"/><rect x="122.9" y="179.1" width="9.9" height="22.5" fill="#AD0E13"/><rect x="163" y="179.1" width="9.9" height="22.5" fill="#AD0E13"/></g><g><rect x="272.8" y="179.1" width="9.9" height="22.5" fill="#AD0E13"/><rect x="234.1" y="179.1" width="9.9" height="22.5" fill="#AD0E13"/><rect x="311.4" y="179.1" width="9.9" height="22.5" fill="#AD0E13"/><rect x="351.5" y="179.1" width="9.9" height="22.5" fill="#AD0E13"/></g><g><rect x="35.1" y="201.6" width="148.6" height="140.3" fill="#FFFFFF"/><rect x="64.6" y="201.6" width="8.8" height="140.3" fill="#7C7C7C"/><rect x="103.7" y="201.6" width="8.8" height="140.3" fill="#7C7C7C"/><rect x="143.5" y="201.6" width="8.8" height="140.3" fill="#7C7C7C"/><rect x="41.8" y="303" width="14.6" height="22" fill="#3C3C3C"/><rect x="81.9" y="303" width="14.6" height="22" fill="#3C3C3C"/><rect x="120.5" y="303" width="14.6" height="22" fill="#3C3C3C"/><rect x="160.6" y="303" width="14.6" height="22" fill="#3C3C3C"/></g><g><rect x="224" y="201.6" width="148.6" height="140.3" fill="#FFFFFF"/><rect x="253.5" y="201.6" width="8.8" height="140.3" fill="#7C7C7C"/><rect x="292.7" y="201.6" width="8.8" height="140.3" fill="#7C7C7C"/><rect x="332.4" y="201.6" width="8.8" height="140.3" fill="#7C7C7C"/><rect x="230.7" y="303" width="14.6" height="22" fill="#3C3C3C"/><rect x="270.8" y="303" width="14.6" height="22" fill="#3C3C3C"/><rect x="309.4" y="303" width="14.6" height="22" fill="#3C3C3C"/><rect x="349.5" y="303" width="14.6" height="22" fill="#3C3C3C"/></g><rect x="35.1" y="167.6" width="472.7" height="11.5" fill="#AD0E13"/></g><g><path d="M234.3 1972.7 337 1086.5 304.4 1082.7 201.3 1972.7Z" fill="#7C7C7C"/><path d="M546.5 1972.7 649.2 1086.5 616.7 1082.7 513.5 1972.7Z" fill="#7C7C7C"/><g><path d="M345.7 1972.7 345.7 1032.9C345.7 990.6 376.7 956.2 414.9 956.2L578.6 956.2C616.7 956.2 647.8 990.6 647.8 1032.9L647.8 1972.7 689.5 1972.7 689.5 1032.9C689.5 965.1 639.8 910 578.6 910L414.9 910C353.8 910 304 965.1 304 1032.9L304 1972.7 345.7 1972.7Z" fill="#ADADAD"/></g><rect x="338" y="1540.8" width="414.9" height="45.4" fill="#ADADAD"/><rect x="338" y="1320.8" width="414.9" height="45.4" fill="#ADADAD"/><rect x="338" y="1716.2" width="414.9" height="45.4" fill="#ADADAD"/></g><g><path d="M387.8 248.9C414.8 248.8 419.1 252.2 417 248.9 414.9 245.6 401.9 227.4 402.9 219.5 403.9 211.6 409.8 223 434.3 240.5 458.8 258 510 333 510 333 510 333 462.4 357.5 457.3 352.1 452.3 346.7 439.3 314.8 424.6 310.4 409.9 306 359.1 291.1 350.3 278.9 341.4 266.9 360.8 249 387.8 248.9Z" fill="#FFB680"/><g><path d="M423.6 757.3C423.6 757.3 424.4 730.3 417.9 703 410.7 672.6 402.1 651.2 394 654.7 385.9 658.2 398.4 684.7 402.8 708 406.6 728 410.3 761.7 410.3 761.7L423.6 757.3Z" fill="#AD0E13"/><path d="M383.4 770.6C383.4 770.6 366.7 749.4 355.6 723.6 343.2 694.9 337.4 672.6 346 670.6 354.6 668.6 360.4 697.3 370.7 718.6 379.6 736.9 396.7 766.2 396.7 766.2L383.4 770.6Z" fill="#AD0E13"/></g><rect x="372.5" y="712.5" width="127.5" height="191" fill="#FCB33D" transform="matrix(-1 -1.22465e-16 1.22465e-16 -1 872.593 1616.02)"/><g><path d="M361.3 1473.6C361.3 1473.6 354.9 1500.8 357 1520.4 359.1 1540 360 1547.1 407.3 1547.6 454.6 1548.1 465.7 1542.1 465.3 1513.6 464.8 1485.1 463.1 1460.7 463.1 1460.7L361.3 1473.6Z" fill="#1599EA"/><path d="M650.9 1466.8C650.9 1466.8 644.5 1494 646.6 1513.6 648.7 1533.2 649.6 1540.3 696.9 1540.8 744.2 1541.3 755.3 1535.3 754.9 1506.8 754.4 1478.3 752.7 1453.9 752.7 1453.9L650.9 1466.8Z" fill="#1599EA"/><path d="M488.4 215.5C488.4 215.5 491.8 239.4 486 266.3 481 289.8 469.4 310.7 469.4 310.7 469.4 310.7 520.5 336.9 550 331.8 579.5 326.7 601.6 308.8 601.6 308.8 601.6 308.8 582 280 579.5 266.3 577 252.6 577 215.5 577 215.5L488.4 215.5Z" fill="#FFB680"/><path d="M613.1 131.6C613.1 185.9 581 247.3 535.3 247.3 489.6 247.3 447.5 186 447.5 131.6 447.5 77.2 461.8 34.3 530.3 33.2 606.9 32 613.1 77.2 613.1 131.6Z" fill="#7E3422"/><path d="M289.6 497.2C289.6 497.2 296.1 405.8 298.9 366 300.1 348.5 287.8 339.3 281.8 329.8 277.5 322.9 265.7 280.2 259 276.3 244.4 267.8 232.6 308.8 236.4 332.4 240 354.4 250.5 376.9 251.3 383.7 252 390.1 247 441 244.3 457.8 235.7 512 237.5 540.5 254.5 562.6 276.7 591.4 297 590.9 313.3 579.4 332.3 566 353.2 537.7 353.2 537.7L289.6 497.2Z" fill="#FFB680"/><g><path d="M396.2 393.6C397.8 364.9 427.5 358 424.1 427.7 420.7 497.4 422.6 570.1 442.3 587.8 461.9 605.6 555.2 628.5 586.7 630 605.2 630.8 641.2 627.8 667.8 625.1 669.8 575.3 672.6 512.5 675.2 476.5 677.7 442.4 702.6 376.5 681.3 340 666.8 315.2 628.5 289.1 584 278.6 543.5 298.3 482.8 278.6 482.8 278.6 482.8 278.6 384.6 312.5 368.1 332.4 345.1 360.2 288.6 469.5 283.1 488.6 283 506.6 298.5 523.2 313.5 535.1 325.7 522.5 343.5 502.9 356.9 482.6 379.5 448.7 394.6 422.3 396.2 393.6Z" fill="#AD0E13"/><path d="M401.7 469C415.6 523.3 413.7 719.9 413.7 719.9L597.8 729 665 699.5C665 699.5 666.1 666.9 667.8 625.1 641.2 627.8 605.2 630.9 586.7 630 555.2 628.6 461.9 605.6 442.3 587.8 422.7 570 420.8 497.4 424.1 427.7 427.5 358 397.8 364.8 396.2 393.6 394.6 422.3 379.5 448.7 356.9 482.7 343.5 502.9 325.7 522.6 313.5 535.2 327.8 546.5 341.7 553.6 341.7 553.6 341.7 553.6 385.9 493.4 401.7 469Z" fill="#C62242"/></g><g><path d="M445.9 1251.3C427 1249.2 428.2 1227 441.8 1202.8 455.4 1178.6 483.1 1048.2 493.3 1009.6 503.5 971 517.6 879.5 506.4 869.4 495.2 859.2 477 832.8 486.4 822.4 495.8 812 532 824.3 562.5 827.4 596 830.9 625.3 808.4 634.2 822.4 643.1 836.4 615.2 869.4 599.6 885.7 584 902.1 615.2 991.3 622.1 1025.3 629 1059.4 647.7 1172.1 672.2 1192.4 696.6 1212.7 688.4 1212.7 672.2 1230.3 656 1247.9 643.7 1251.3 658 1308.2 667.9 1347.9 676.9 1427.2 677.2 1472.5L765.7 1468.3C761.5 1415.6 733 1086.1 712.9 964.8 689.8 826.7 667 679.9 667 679.9 667 679.9 593.5 685.3 569.1 686.7 535.1 688.7 414.1 679.1 414.1 679.1 414.1 679.1 382.9 980.6 378.7 1064.4 375.5 1128.1 345.1 1373.8 346.9 1473.6L428.1 1473.6C431.3 1432 437.4 1362.9 444.3 1340.4 454.3 1307.5 464.8 1253.4 445.9 1251.3Z" fill="#3C3C3C"/><path d="M497 1142.2C508.9 1083.7 554.6 853.5 554.6 853.5 554.6 853.5 589 1115.4 596.4 1142.2 602.8 1165.6 630.5 1413.4 638.6 1473.7L677.1 1472.7C676.8 1427.4 667.8 1348.1 657.9 1308.4 643.7 1251.5 655.9 1248.1 672.1 1230.5 688.3 1212.9 696.5 1212.9 672.1 1192.6 647.7 1172.3 628.9 1059.6 622 1025.5 615.1 991.4 583.9 902.2 599.5 885.9 615.1 869.5 643 836.5 634.1 822.6 625.2 808.6 595.9 831.1 562.4 827.6 531.9 824.4 495.7 812.2 486.3 822.6 476.9 833 495.1 859.4 506.3 869.6 517.5 879.8 503.4 971.2 493.2 1009.8 483 1048.4 455.2 1178.8 441.7 1203 428.1 1227.2 426.9 1249.4 445.8 1251.5 464.7 1253.6 454.2 1307.7 444.2 1340.6 437.4 1363.1 431.2 1432.2 428 1473.8L465.7 1473.8C481.5 1390.9 487.6 1188.2 497 1142.2Z" fill="#30302E"/></g><path d="M297.6 301.6C297 297.6 287.3 299.4 287.3 309.8 287.3 320.2 283.1 343.6 282.7 345.8 282.3 348 298.3 375.8 298.3 375.8 298.3 375.8 302.5 351.7 301.1 337.8 299.8 323.9 299 310.3 297.6 301.6Z" fill="#FFB680"/><path d="M672.1 712.5 410.8 712.5 413.6 670.6 665.9 670.6Z" fill="#FCB33D"/><path d="M461.8 286.2C461.8 286.2 469.4 257.1 512 263.1 554.6 269.1 588.9 260.6 588.9 260.6L601.6 283.7C601.6 283.7 583.5 314.1 543.4 308.8 503.4 303.5 461.8 286.2 461.8 286.2Z" fill="#C62242"/></g><path d="M443.5 122C444.9 56 460.2 3 531.8 3 600.4 3 618.7 56 620.1 122L443.5 122Z" fill="#FCB33D"/><rect x="435.7" y="109" width="192.2" height="17.8" fill="#E2901A" transform="matrix(-1 -1.22465e-16 1.22465e-16 -1 1063.48 235.797)"/><path d="M551.3 76.1 587.2 21.3C587.2 21.3 580.2 6.7 570.3 3 551.1-4.3 543.8 4 543.8 4L551.3 76.1Z" fill="#E2901A"/><path d="M511 76.1 475.1 21.3C475.1 21.3 482.1 6.7 492 3 511.2-4.3 518.4 4 518.4 4L511 76.1Z" fill="#E2901A"/></g></g></svg>