<svg width="885.9" height="1596.1" viewBox="0 0 885.9 1596.1" xmlns="http://www.w3.org/2000/svg" xmlns:xlink="http://www.w3.org/1999/xlink" overflow="hidden"><defs></defs><g><g><rect x="0" y="0" width="529.7" height="506.2" fill="#5B5B5B"/><rect x="28.1" y="25.5" width="473.5" height="455.2" fill="#ADADAD"/><g><rect x="61.5" y="38.6" width="13.5" height="24.8" fill="#AD0E13"/><rect x="107.5" y="38.6" width="13.5" height="24.8" fill="#AD0E13"/><rect x="153.5" y="38.6" width="13.5" height="24.8" fill="#AD0E13"/><rect x="199.5" y="38.6" width="13.5" height="24.8" fill="#AD0E13"/><rect x="245.5" y="38.6" width="13.5" height="24.8" fill="#AD0E13"/><rect x="291.5" y="38.6" width="13.5" height="24.8" fill="#AD0E13"/></g><g><g><path d="M41.7 441.9 48.3 441.9C50.5 425.4 54.5 407.5 61.4 393.3 72.4 370.9 70.9 343.9 70.8 342.8L64.3 343.2C64.3 343.5 65.7 369.7 55.5 390.5 48.1 405.7 44 424.6 41.7 441.9Z" fill="#AD0E13"/></g><g><path d="M116.9 441.9 124.2 441.9C121.4 436.2 117.8 430.5 113.3 425.2 93.4 402.2 99.5 343.9 99.5 343.4L93 342.7C92.7 345.2 86.6 404.4 108.3 429.5 111.8 433.3 114.5 437.6 116.9 441.9Z" fill="#AD0E13"/></g><g><path d="M94 441.9C96.8 432.8 103.3 425.3 109.8 418 117.9 408.8 125.5 400.2 125.7 388.8 126 367.5 125.7 345.9 125.7 345.7L119.2 345.8C119.2 346 119.5 367.5 119.2 388.7 119.1 397.7 112.2 405.5 104.9 413.7 97.9 421.7 90.1 430.6 87.3 441.9L94 441.9Z" fill="#AD0E13"/></g><g><path d="M177.3 441.9 183.9 441.9C181.5 427.3 177.2 412.6 169.5 403.1 151.2 380.8 156.6 346.6 156.7 346.2L150.3 345.1C150 346.6 144.3 382.5 164.5 407.1 171.2 415.4 175.1 428.5 177.3 441.9Z" fill="#AD0E13"/></g><g><path d="M207.5 441.9C209.4 426.5 211.3 410.9 211.8 398 212.8 372.4 214.1 343.2 214.1 343.2L207.6 342.9C207.6 342.9 206.2 372.1 205.3 397.8 204.8 410.6 202.9 426.4 201 442L207.5 442Z" fill="#AD0E13"/></g><g><path d="M251.8 418C258.3 425.4 265.2 433.6 268.7 441.9L275.6 441.9C272.1 431.5 263.7 421.9 256.7 413.7 251.1 407.3 245.9 401.2 245.1 397.2 242.8 385.4 245.4 346.3 245.4 345.9L238.9 345.5C238.8 347.1 236.2 385.9 238.7 398.5 239.8 404.2 245.3 410.6 251.8 418Z" fill="#AD0E13"/></g><g><path d="M245.4 441.9C248.4 434.1 252.5 425.1 256.3 416.8 260 408.7 263.5 401.1 265.5 395.5 271.4 379.3 271.6 347.1 271.6 345.8L265.1 345.8C265.1 346.1 264.9 378.2 259.4 393.3 257.4 398.7 254 406.2 250.4 414.2 246.1 423.5 241.7 433.4 238.6 442L245.4 442Z" fill="#AD0E13"/></g><g><path d="M322.2 441.9 328.9 441.9C323.7 424.7 316 408.4 308.5 399 295.1 382.3 301.9 346.6 302 346.3L295.6 345C295.3 346.6 288.1 383.9 303.4 403 310.2 411.5 317.2 426.2 322.2 441.9Z" fill="#AD0E13"/></g></g><rect x="28.1" y="432.9" width="473.5" height="18.3" fill="#FFFFFF"/><g><rect x="63.3" y="279.5" width="8.7" height="33" fill="#3C3C3C" transform="matrix(-1 -1.22465e-16 1.22465e-16 -1 135.194 591.961)"/><g><path d="M67.3 305 67.3 305C71.3 305 74.6 308.3 74.6 312.3L74.6 314.2C74.6 318.2 71.3 321.5 67.3 321.5L67.3 321.5C63.3 321.5 60 318.2 60 314.2L60 312.3C60.1 308.3 63.3 305 67.3 305Z" fill="#FFFFFF"/><path d="M74.6 312.2 74.6 343C74.6 347 71.3 350.3 67.3 350.3 63.3 350.3 60 347 60 343L60 312.2 74.6 312.2Z" fill="#7C7C7C"/><path d="M65.6 308.7C65.6 309.7 66.4 310.5 67.4 310.5 68.4 310.5 69.2 309.7 69.2 308.7 69.2 307.7 68.4 306.9 67.4 306.9 66.4 306.9 65.6 307.7 65.6 308.7Z" fill="#3C3C3C"/></g></g><g><rect x="92.6" y="279.5" width="8.7" height="33" fill="#3C3C3C" transform="matrix(-1 -1.22465e-16 1.22465e-16 -1 193.789 591.961)"/><g><path d="M96.6 305 96.6 305C100.6 305 103.9 308.3 103.9 312.3L103.9 314.2C103.9 318.2 100.6 321.5 96.6 321.5L96.6 321.5C92.6 321.5 89.3 318.2 89.3 314.2L89.3 312.3C89.4 308.3 92.6 305 96.6 305Z" fill="#FFFFFF"/><path d="M103.9 312.2 103.9 343C103.9 347 100.6 350.3 96.6 350.3 92.6 350.3 89.3 347 89.3 343L89.3 312.2 103.9 312.2Z" fill="#7C7C7C"/><path d="M94.9 308.7C94.9 309.7 95.7 310.5 96.7 310.5 97.7 310.5 98.5 309.7 98.5 308.7 98.5 307.7 97.7 306.9 96.7 306.9 95.7 306.9 94.9 307.7 94.9 308.7Z" fill="#3C3C3C"/></g></g><g><rect x="120.1" y="279.5" width="8.7" height="33" fill="#3C3C3C" transform="matrix(-1 -1.22465e-16 1.22465e-16 -1 248.89 591.961)"/><g><path d="M124.2 305 124.2 305C128.2 305 131.5 308.3 131.5 312.3L131.5 314.2C131.5 318.2 128.2 321.5 124.2 321.5L124.2 321.5C120.2 321.5 116.9 318.2 116.9 314.2L116.9 312.3C116.9 308.3 120.2 305 124.2 305Z" fill="#FFFFFF"/><path d="M131.4 312.2 131.4 343C131.4 347 128.1 350.3 124.1 350.3 120.1 350.3 116.8 347 116.8 343L116.8 312.2 131.4 312.2Z" fill="#7C7C7C"/><path d="M122.4 308.7C122.4 309.7 123.2 310.5 124.2 310.5 125.2 310.5 126 309.7 126 308.7 126 307.7 125.2 306.9 124.2 306.9 123.2 306.9 122.4 307.7 122.4 308.7Z" fill="#3C3C3C"/></g></g><g><rect x="149.4" y="279.5" width="8.7" height="33" fill="#3C3C3C" transform="matrix(-1 -1.22465e-16 1.22465e-16 -1 307.486 591.961)"/><g><path d="M153.5 305 153.5 305C157.5 305 160.8 308.3 160.8 312.3L160.8 314.2C160.8 318.2 157.5 321.5 153.5 321.5L153.5 321.5C149.5 321.5 146.2 318.2 146.2 314.2L146.2 312.3C146.2 308.3 149.5 305 153.5 305Z" fill="#FFFFFF"/><path d="M160.7 312.2 160.7 343C160.7 347 157.4 350.3 153.4 350.3 149.4 350.3 146.1 347 146.1 343L146.1 312.2 160.7 312.2Z" fill="#7C7C7C"/><path d="M151.7 308.7C151.7 309.7 152.5 310.5 153.5 310.5 154.5 310.5 155.3 309.7 155.3 308.7 155.3 307.7 154.5 306.9 153.5 306.9 152.5 306.9 151.7 307.7 151.7 308.7Z" fill="#3C3C3C"/></g></g><g><rect x="208.5" y="279.5" width="8.7" height="33" fill="#3C3C3C" transform="matrix(-1 -1.22465e-16 1.22465e-16 -1 425.709 591.961)"/><g><path d="M212.6 305 212.6 305C216.6 305 219.9 308.3 219.9 312.3L219.9 314.2C219.9 318.2 216.6 321.5 212.6 321.5L212.6 321.5C208.6 321.5 205.3 318.2 205.3 314.2L205.3 312.3C205.3 308.3 208.6 305 212.6 305Z" fill="#FFFFFF"/><path d="M219.8 312.2 219.8 343C219.8 347 216.5 350.3 212.5 350.3 208.5 350.3 205.2 347 205.2 343L205.2 312.2 219.8 312.2Z" fill="#7C7C7C"/><path d="M210.8 308.7C210.8 309.7 211.6 310.5 212.6 310.5 213.6 310.5 214.4 309.7 214.4 308.7 214.4 307.7 213.6 306.9 212.6 306.9 211.6 306.9 210.8 307.7 210.8 308.7Z" fill="#3C3C3C"/></g></g><g><rect x="237.8" y="279.5" width="8.7" height="33" fill="#3C3C3C" transform="matrix(-1 -1.22465e-16 1.22465e-16 -1 484.305 591.961)"/><g><path d="M241.9 305 241.9 305C245.9 305 249.2 308.3 249.2 312.3L249.2 314.2C249.2 318.2 245.9 321.5 241.9 321.5L241.9 321.5C237.9 321.5 234.6 318.2 234.6 314.2L234.6 312.3C234.6 308.3 237.9 305 241.9 305Z" fill="#FFFFFF"/><path d="M249.1 312.2 249.1 343C249.1 347 245.8 350.3 241.8 350.3 237.8 350.3 234.5 347 234.5 343L234.5 312.2 249.1 312.2Z" fill="#7C7C7C"/><path d="M240.1 308.7C240.1 309.7 240.9 310.5 241.9 310.5 242.9 310.5 243.7 309.7 243.7 308.7 243.7 307.7 242.9 306.9 241.9 306.9 240.9 306.9 240.1 307.7 240.1 308.7Z" fill="#3C3C3C"/></g></g><g><rect x="265.4" y="279.5" width="8.7" height="33" fill="#3C3C3C" transform="matrix(-1 -1.22465e-16 1.22465e-16 -1 539.405 591.961)"/><g><path d="M269.4 305 269.4 305C273.4 305 276.7 308.3 276.7 312.3L276.7 314.2C276.7 318.2 273.4 321.5 269.4 321.5L269.4 321.5C265.4 321.5 262.1 318.2 262.1 314.2L262.1 312.3C262.2 308.3 265.4 305 269.4 305Z" fill="#FFFFFF"/><path d="M276.7 312.2 276.7 343C276.7 347 273.4 350.3 269.4 350.3 265.4 350.3 262.1 347 262.1 343L262.1 312.2 276.7 312.2Z" fill="#7C7C7C"/><path d="M267.7 308.7C267.7 309.7 268.5 310.5 269.5 310.5 270.5 310.5 271.3 309.7 271.3 308.7 271.3 307.7 270.5 306.9 269.5 306.9 268.5 306.9 267.7 307.7 267.7 308.7Z" fill="#3C3C3C"/></g></g><g><rect x="294.7" y="279.5" width="8.7" height="33" fill="#3C3C3C" transform="matrix(-1 -1.22465e-16 1.22465e-16 -1 598.001 591.961)"/><g><path d="M298.7 305 298.7 305C302.7 305 306 308.3 306 312.3L306 314.2C306 318.2 302.7 321.5 298.7 321.5L298.7 321.5C294.7 321.5 291.4 318.2 291.4 314.2L291.4 312.3C291.5 308.3 294.7 305 298.7 305Z" fill="#FFFFFF"/><path d="M306 312.2 306 343C306 347 302.7 350.3 298.7 350.3 294.7 350.3 291.4 347 291.4 343L291.4 312.2 306 312.2Z" fill="#7C7C7C"/><path d="M297 308.7C297 309.7 297.8 310.5 298.8 310.5 299.8 310.5 300.6 309.7 300.6 308.7 300.6 307.7 299.8 306.9 298.8 306.9 297.8 306.9 297 307.7 297 308.7Z" fill="#3C3C3C"/></g></g><rect x="78.1" y="175.1" width="9.3" height="35.1" fill="#D3D3D3"/><rect x="106.2" y="175.1" width="9.3" height="35.1" fill="#D3D3D3"/><rect x="134.2" y="175.1" width="9.3" height="35.1" fill="#D3D3D3"/><rect x="223" y="175.1" width="9.3" height="35.1" fill="#3C3C3C"/><rect x="251" y="175.1" width="9.3" height="35.1" fill="#3C3C3C"/><rect x="381.1" y="338.1" width="9.3" height="94.8" fill="#3C3C3C"/><rect x="381.1" y="451.3" width="9.3" height="29.4" fill="#3C3C3C"/><rect x="453.6" y="451.3" width="9.3" height="29.4" fill="#3C3C3C"/><rect x="453.6" y="338.1" width="9.3" height="94.8" fill="#3C3C3C"/><rect x="279.1" y="175.1" width="9.3" height="35.1" fill="#3C3C3C"/><g><rect x="49.2" y="62.4" width="268.1" height="112.7" fill="#FFFFFF"/><path d="M106.7 93.9C106.7 104.9 97.8 113.7 86.9 113.7 75.9 113.7 67.1 104.8 67.1 93.9 67.1 82.9 76 74.1 86.9 74.1 97.8 74 106.7 82.9 106.7 93.9Z" fill="#5B5B5B"/><path d="M203.1 93.9C203.1 104.9 194.2 113.7 183.3 113.7 172.3 113.7 163.5 104.8 163.5 93.9 163.5 82.9 172.4 74.1 183.3 74.1 194.2 74 203.1 82.9 203.1 93.9Z" fill="#5B5B5B"/><path d="M297.7 93.9C297.7 104.9 288.8 113.7 277.9 113.7 266.9 113.7 258.1 104.8 258.1 93.9 258.1 82.9 267 74.1 277.9 74.1 288.8 74 297.7 82.9 297.7 93.9Z" fill="#5B5B5B"/><path d="M155.8 144.1C155.8 155.1 146.9 163.9 136 163.9 125 163.9 116.2 155 116.2 144.1 116.2 133.1 125.1 124.3 136 124.3 146.9 124.3 155.8 133.1 155.8 144.1Z" fill="#5B5B5B"/><path d="M250.4 144.1C250.4 155.1 241.5 163.9 230.6 163.9 219.6 163.9 210.8 155 210.8 144.1 210.8 133.1 219.7 124.3 230.6 124.3 241.5 124.3 250.4 133.1 250.4 144.1Z" fill="#5B5B5B"/><circle cx="86.9" cy="93.9" r="9.4" fill="#ADADAD"/><circle cx="135.9" cy="144.1" r="9.4" fill="#ADADAD"/><circle cx="277.8" cy="93.9" r="9.4" fill="#ADADAD"/><path d="M192.6 93.9C192.6 99.1 188.4 103.3 183.2 103.3 178 103.3 173.8 99.1 173.8 93.9 173.8 88.7 178 84.5 183.2 84.5 188.4 84.5 192.6 88.7 192.6 93.9Z" fill="#ADADAD"/><circle cx="230.5" cy="144.1" r="9.4" fill="#ADADAD"/></g><rect x="49.2" y="210.2" width="123.3" height="69.2" fill="#5B5B5B"/><rect x="68.1" y="229" width="85.5" height="31.7" fill="#7C7C7C"/><rect x="194" y="210.2" width="123.3" height="69.2" fill="#5B5B5B"/><rect x="212.9" y="229" width="85.5" height="31.7" fill="#7C7C7C"/><rect x="89.4" y="229" width="13.7" height="31.7" fill="#D3D3D3"/><rect x="119.7" y="229" width="13.7" height="31.7" fill="#D3D3D3"/><rect x="248.8" y="229" width="13.7" height="31.7" fill="#D3D3D3"/><rect x="28.1" y="451.3" width="314.6" height="29.4" fill="#7C7C7C"/><rect x="342.7" y="25.5" width="19.5" height="262.4" fill="#D3D3D3"/><rect x="342.7" y="287.9" width="158.9" height="50.6" fill="#FFFFFF"/><rect x="374" y="44.1" width="127.6" height="61.9" fill="#5B5B5B"/><g><path d="M429 75.6C429 86.6 420.1 95.4 409.2 95.4 398.2 95.4 389.4 86.5 389.4 75.6 389.4 64.6 398.3 55.8 409.2 55.8 420.1 55.7 429 64.6 429 75.6Z" fill="#FFFFFF"/><path d="M418.5 75.6C418.5 80.8 414.3 85 409.1 85 403.9 85 399.7 80.8 399.7 75.6 399.7 70.4 403.9 66.2 409.1 66.2 414.3 66.2 418.5 70.4 418.5 75.6Z" fill="#ADADAD"/></g><rect x="374" y="125.9" width="127.6" height="61.9" fill="#5B5B5B"/><g><path d="M429 157.4C429 168.4 420.1 177.2 409.2 177.2 398.2 177.2 389.4 168.3 389.4 157.4 389.4 146.4 398.3 137.6 409.2 137.6 420.1 137.5 429 146.4 429 157.4Z" fill="#FFFFFF"/><path d="M418.5 157.4C418.5 162.6 414.3 166.8 409.1 166.8 403.9 166.8 399.7 162.6 399.7 157.4 399.7 152.2 403.9 148 409.1 148 414.3 148 418.5 152.2 418.5 157.4Z" fill="#ADADAD"/></g><rect x="374" y="207.4" width="127.6" height="61.9" fill="#5B5B5B"/><g><path d="M429 238.9C429 249.9 420.1 258.7 409.2 258.7 398.2 258.7 389.4 249.8 389.4 238.9 389.4 227.9 398.3 219.1 409.2 219.1 420.1 219 429 227.9 429 238.9Z" fill="#FFFFFF"/><path d="M418.5 238.9C418.5 244.1 414.3 248.3 409.1 248.3 403.9 248.3 399.7 244.1 399.7 238.9 399.7 233.7 403.9 229.5 409.1 229.5 414.3 229.5 418.5 233.7 418.5 238.9Z" fill="#ADADAD"/></g><rect x="444.8" y="61.8" width="56.8" height="7.7" fill="#D3D3D3"/><rect x="444.8" y="81.7" width="56.8" height="7.7" fill="#D3D3D3"/><rect x="444.8" y="142.9" width="56.8" height="7.7" fill="#D3D3D3"/><rect x="444.8" y="162.8" width="56.8" height="7.7" fill="#D3D3D3"/><rect x="444.8" y="224.6" width="56.8" height="7.7" fill="#D3D3D3"/><rect x="444.8" y="244.4" width="56.8" height="7.7" fill="#D3D3D3"/><rect x="364.6" y="355.7" width="45.7" height="61.6" fill="#5B5B5B"/><rect x="433.2" y="355.7" width="45.7" height="61.6" fill="#5B5B5B"/></g><g><path d="M465.7 391.1C465.7 391.1 509.6 477.2 525 499.1 540.4 521 571.6 542.5 594.9 554.1 618.2 565.6 682.2 499.1 682.2 499.1L644.2 432.9 624 473.3C624 473.3 539.1 386.4 521.5 368.6 503.9 350.8 477.4 343.2 465.6 345 454 346.8 465.7 391.1 465.7 391.1Z" fill="#FFB680"/><g><g><g><g><g><path d="M639.5 133.7C643.5 118.3 647.6 110.9 663.9 99.6 680.2 88.3 743.8 77 774.7 103.2 805.6 129.4 793.4 177.8 788.4 194.3 782.7 213.1 772.4 236.4 768.8 262.4 767.2 274.2 778.2 300.5 781.8 307.2 781.8 307.2 781.8 307.2 781.8 307.3 769.2 322.6 745.9 328.6 727.2 330.4 716.6 331.4 707.6 330.5 699 328.5 700.2 326.9 701.3 325.3 701.9 323.4 704.3 316.8 703.1 288.6 697.3 282.1 689.1 272.8 679.3 273.5 667.3 275.9 651.3 279.2 654.9 258.5 644.9 255.2 638.3 253 642.6 249.6 644.3 246.3 643.2 244 638.2 242.8 637.1 240.8 634.5 235.9 640.2 234.1 639.4 231.6 637.4 225.3 619.4 225 621.1 218.2 624 206.4 644.6 183.5 641.7 175.8 635.9 160.1 635.7 148.3 639.5 133.7Z" fill="#FFB680"/><path d="M640.8 129.2C640.8 129.2 662.2 121 691.2 143 709.8 157.1 710.4 173.6 735.1 180.5 756.4 186.4 752.6 201.6 752.6 201.6L770.9 253.3C770.9 253.3 803.1 226 805.9 165.3 808.6 106.9 791 99.9 791 99.9 791 99.9 759.6 75.5 696.8 80.3 661.4 83 640.8 94.5 640.8 94.5 640.8 94.5 644.7 112.1 640.8 129.2Z" fill="#3C3C3C"/><path d="M729.9 182.3C729.9 182.3 730.6 163.1 748.8 165.3 767 167.6 769.1 193.3 749.2 208.6 729.4 223.8 729.9 182.3 729.9 182.3Z" fill="#FFB680"/></g></g></g></g><g><path d="M624.1 126.4 624.1 126.4 677.5 120.8C677.5 120.8 672.2 91.6 646.7 83.6 657.2 69.5 674.3 56.2 702.2 52.3 792.1 39.7 806.4 124.9 806.4 124.9L561.3 153.5 558.2 137.9 624.1 126.4Z" fill="#1599EA"/><path d="M677.5 120.8 624.1 126.4 624.1 126.4 630.1 125.4C630.1 125.4 631.8 103.6 646.7 83.7 672.2 91.6 677.5 120.8 677.5 120.8Z" fill="#1779AF"/></g></g><g><path d="M712.7 1571.3C705.5 1566.4 699.2 1563.4 692.9 1562.3 698.3 1552.8 706.6 1543.4 714.4 1537.8 732.4 1524.8 770.1 1500.4 770.1 1500.4L859 1491.7C859 1491.7 857 1514.6 856.7 1529.7 839.6 1543.4 811.8 1563.8 789.2 1571.3 754 1582.9 730.5 1583.4 712.7 1571.3Z" fill="#3C3C3C"/><path d="M428.9 1563.5C422.4 1559.1 416.7 1556.1 411 1554.8 416.4 1544.9 425 1535 433.1 1529.1 451.2 1516.1 488.8 1491.7 488.8 1491.7L569.6 1497.8 577.7 1498.4C577.7 1498.4 575.9 1508.9 575.5 1519.8 558.7 1533.4 529.2 1555.6 505.4 1563.5 470.3 1575.1 446.7 1575.7 428.9 1563.5Z" fill="#3C3C3C"/><path d="M856.7 1537.3C857.3 1550.4 833.4 1566.5 799.7 1581.8 766 1597.2 710.9 1599.5 693.4 1591.7 683.5 1587.3 685.8 1574.6 692.9 1562.2 699.2 1563.3 705.5 1566.3 712.7 1571.2 730.5 1583.4 754 1582.8 789.2 1571.2 811.8 1563.7 839.6 1543.3 856.7 1529.6 856.6 1532.6 856.6 1535.2 856.7 1537.3Z" fill="#30302E"/><path d="M575.4 1528.7C576 1541.8 552.1 1557.9 518.4 1573.2 484.7 1588.6 429.6 1590.9 412.1 1583.1 402.5 1578.8 404.4 1566.8 411 1554.8 416.7 1556.1 422.4 1559.1 428.9 1563.5 446.7 1575.7 470.2 1575.1 505.4 1563.5 529.1 1555.6 558.7 1533.4 575.5 1519.8 575.3 1522.8 575.3 1525.8 575.4 1528.7Z" fill="#30302E"/></g><path d="M819.4 1499.1C819.4 1499.1 793.7 1524.3 763.2 1543.9 738.6 1559.6 718.1 1554.7 738.6 1534.8 759.1 1514.9 779 1499.5 779 1499.5L819.4 1499.1Z" fill="#FFFFFF"/><path d="M531.9 1499.1C531.9 1499.1 506.2 1524.3 475.7 1543.9 451.1 1559.6 430.6 1554.7 451.1 1534.8 471.6 1514.9 491.5 1499.5 491.5 1499.5L531.9 1499.1Z" fill="#FFFFFF"/><g><path d="M806.2 757C788.1 768.4 714.9 737.1 682.3 743 662 746.7 630 754.1 608.8 759.2 620 641.3 615.2 498.1 621.1 476.4 636.9 417.8 665 369 699.2 328.3 740.4 340.5 781.9 307.1 781.9 307.1 781.9 307.1 828.9 333.1 849.6 358.7 874 389 875.4 477.2 872.5 554.1 854.1 591 831.3 637.2 822.7 655.6 807.5 688.4 824.3 745.7 806.2 757Z" fill="#FCB33D"/><path d="M870.8 808.3C870.8 808.3 750.2 816.9 708.1 814.5 678.8 812.9 604.9 794.1 604.9 794.1 606.4 782.8 607.7 771.1 608.8 759.2 630 754.1 662 746.7 682.3 743 714.9 737.1 788.1 768.3 806.2 757 824.3 745.6 807.6 688.4 822.7 655.6 831.2 637.2 854.1 591 872.5 554.1 871.5 579.3 870.1 603.4 868.9 623.8 864.7 693.6 873.7 759.4 870.8 808.3Z" fill="#E2901A"/></g><g><path d="M617.8 1030.9C600 1090 585.4 1143.1 565.9 1164.4 546.4 1185.7 503.5 1218.1 515.2 1231.1 526.9 1244.1 538.3 1229.5 549.6 1231.1 561 1232.7 557.3 1260.2 552 1290.3 549.8 1302.6 535.2 1427.4 525.9 1507.1L449 1507.6C450.5 1420.4 453.7 1149.7 471.7 1108.7 490 1067.1 577.7 818 604.7 752.3 615.6 755.4 649.7 769.3 659.5 771.5 727.1 786.7 824.4 764.2 870.6 755.8 882.8 819.1 883 891.4 885.2 926.4 889.9 1000.6 863.9 1186.7 868.7 1232.9 872.5 1270 870.6 1440.9 873.4 1506.9L745.1 1506.9C741 1436.6 729.9 1246 729.9 1213.3 729.9 1157.7 695.8 947.7 695.8 947.7L683.8 928.3C683.7 928.1 635.6 971.8 617.8 1030.9Z" fill="#1599EA"/><path d="M586.3 1506.7 526.1 1507.1C535.4 1427.4 550 1302.6 552.2 1290.3 557.5 1260.2 561.1 1232.7 549.8 1231.1 538.4 1229.5 527.1 1244.1 515.4 1231.1 503.7 1218.1 546.6 1185.7 566.1 1164.4 585.6 1143.1 600.2 1090 618 1030.9 635.8 971.8 683.9 928.1 683.9 928.1L695.9 947.5C695.9 947.5 606.9 1149.5 601 1193.3 596.1 1229.2 588.8 1433.6 586.3 1506.7Z" fill="#1779AF"/></g><path d="M819.4 778.4C819.4 778.4 750 653 730.2 597.5 710.4 542 695.8 457.3 695.8 457.3 695.8 457.3 650.8 452 631.9 443.1 595.1 497.9 601.5 819.3 601.5 819.3L819.4 778.4Z" fill="#1599EA"/><path d="M838 346.6C838 346.6 802 335.5 749.7 386.2 714 420.9 696.7 456.5 686.2 477.1 675.6 498 658.3 486.1 664.7 467.5 673.3 442.5 698 395.4 738.6 362.9 789.1 322.4 817.9 330.6 817.9 330.6L838 346.6Z" fill="#3C3C3C"/><path d="M873.5 777.8 870.2 743C870.2 743 758.1 767 692.9 764.5 627.8 762 601.1 735.8 601.1 735.8L595 777.2C595 777.2 637.3 802.2 724.8 797.3 801.7 793 873.5 777.8 873.5 777.8Z" fill="#1779AF"/><path d="M763.3 773.5C763.3 773.5 769.2 858.3 801.6 890 829.8 917.6 884.3 913.2 884.3 913.2L885.8 934.9C885.8 934.9 816.2 944.1 777.8 897.6 739.4 851 741.1 779.2 741.1 779.2L763.3 773.5Z" fill="#1779AF"/><path d="M695.8 947.5 680.4 941C680.4 941 661.6 903 657.2 872.7 652.8 842.4 649.1 789.5 651.3 789.5 653.5 789.5 676.2 791.9 676.2 791.9 676.2 791.9 676.5 830.5 680 868.5 682.4 895.7 695.8 947.5 695.8 947.5Z" fill="#1779AF"/><path d="M670.8 467.6C670.8 471.6 673.7 474.9 677.3 474.9 680.9 474.9 683.8 471.6 683.8 467.6 683.8 463.6 680.9 460.3 677.3 460.3 673.7 460.3 670.8 463.6 670.8 467.6Z" fill="#FFFFFF"/><g><path d="M324 457.6 324 457.6C325.5 455.9 325.4 453.3 323.7 451.8L275.8 408C274.1 406.5 271.5 406.6 270 408.3L270 408.3C268.5 410 268.6 412.6 270.3 414.1L318.2 457.8C319.8 459.4 322.4 459.2 324 457.6Z" fill="#AD0E13"/><rect x="276.6" y="419.6" width="16.5" height="4.5" fill="#AD0E13" transform="matrix(-0.674 0.7388 -0.7388 -0.674 788.339 495.699)"/></g><g><path d="M413.5 762.2C409.9 762.2 406.1 761.9 402.2 761.1 355.9 752.8 358 697.9 359.9 644.8 360.4 629.9 361 614.5 360.5 600.5 358.1 538.4 327.8 481.9 327.5 481.4L330.3 479.9C330.6 480.5 361.3 537.6 363.7 600.4 364.2 614.5 363.7 630 363.1 644.9 361.2 696.6 359.2 750 402.7 757.9 418.9 760.8 432.8 757.3 443.9 747.4 466.7 727.3 477.8 680.9 474.3 620.1 469.9 541.7 454.1 447.1 441.2 421.8L444.1 420.3C457.4 446.4 473 539.7 477.6 619.9 481.1 681.6 469.6 729 446.1 749.8 437 758.1 426 762.2 413.5 762.2Z" fill="#AD0E13"/></g><path d="M691.1 458.7C691.1 458.7 614.7 530.1 601 538.8 587.3 547.5 549.9 530.1 525.4 527 500.8 523.9 388.4 454.4 354.5 445.9 320.6 437.4 263.5 429.5 272.2 446.7 277.4 457 291.2 482.1 300.5 499.8 304.1 506.6 329.7 525.9 370.9 524.8 412.1 523.7 467.4 581.5 504.7 597.1 542 612.7 600.6 644.9 633.9 631 667.1 617 761.5 548.2 761.5 548.2L691.1 458.7Z" fill="#FFB680"/><path d="M677.3 467.6C692.4 451.7 723.5 414.4 730 407.6 813.5 319.1 889.7 350.5 856.8 442.6 841.7 484.8 793.6 528.8 761.5 558.8 733.8 527.5 703.3 500.4 677.3 467.6Z" fill="#E2901A"/><g><g><rect x="391.4" y="282.2" width="84.2" height="140.5" fill="#AD0E13" transform="matrix(-0.8913 0.4534 -0.4534 -0.8913 979.806 470.04)"/><rect x="400.4" y="290.3" width="66.3" height="124.4" fill="#3C3C3C" transform="matrix(-0.8913 0.4534 -0.4534 -0.8913 979.807 470.036)"/><rect x="387.5" y="302.2" width="51.7" height="21" fill="#999999" transform="matrix(-0.8913 0.4534 -0.4534 -0.8913 923.511 403.997)"/><g><path d="M415 366.6C420.5 377.4 433.6 381.6 444.4 376.2 455.2 370.7 459.4 357.6 454 346.8 448.5 336 435.4 331.8 424.6 337.2 413.9 342.7 409.6 355.9 415 366.6Z" fill="#FCB33D"/><path d="M419.7 364.2C423.9 372.4 433.8 375.6 442 371.5 450.2 367.3 453.4 357.4 449.3 349.2 445.1 341 435.2 337.8 427 341.9 418.8 346.1 415.6 356.1 419.7 364.2Z" fill="#FFDEAE"/><rect x="431.4" y="338.6" width="6.3" height="36.3" fill="#FCB33D" transform="matrix(-0.8913 0.4534 -0.4534 -0.8913 983.555 477.613)"/></g><path d="M466.3 382.6C467.6 385.1 470.7 386.2 473.2 384.9 475.7 383.6 476.8 380.5 475.5 378 474.2 375.5 471.1 374.4 468.6 375.7 466 376.9 465 380 466.3 382.6Z" fill="#999999"/><path d="M446.9 392.5C448.2 395 451.3 396.1 453.8 394.8 456.3 393.5 457.4 390.4 456.1 387.9 454.8 385.4 451.7 384.3 449.2 385.6 446.6 386.8 445.6 389.9 446.9 392.5Z" fill="#1599EA"/><path d="M427.4 402.4C428.7 404.9 431.8 406 434.3 404.7 436.8 403.4 437.9 400.3 436.6 397.8 435.3 395.3 432.2 394.2 429.7 395.5 427.2 396.7 426.1 399.8 427.4 402.4Z" fill="#AD0E13"/><path d="M442.8 421.1 442.8 421.1C444.1 420.5 444.6 418.9 443.9 417.6L435.5 401.1C434.9 399.8 433.3 399.3 432 400L432 400C430.7 400.6 430.2 402.2 430.9 403.5L439.3 420C439.9 421.2 441.5 421.8 442.8 421.1Z" fill="#AD0E13"/></g><path d="M521.6 368.6C521.6 368.6 505.6 345.9 498.4 336.9 491.2 327.8 474.6 316.4 467.7 311.9 455.3 303.9 458.1 321.8 463.7 326.9 475.8 337.9 484.4 359.3 484.4 359.3L521.6 368.6Z" fill="#FFB680"/><path d="M378.3 345.7C383.6 341.4 391.3 336.6 395.5 343.7 399.6 350.8 390.8 358.3 383.3 360.9 375.8 363.4 367.9 354.1 378.3 345.7Z" fill="#FFB680"/><path d="M384.3 359.2C389.6 354.9 397.3 350.1 401.5 357.2 405.6 364.3 396.8 371.8 389.3 374.4 381.7 376.8 373.9 367.6 384.3 359.2Z" fill="#FFB680"/><path d="M392.1 372.7C397.4 368.4 405.1 363.6 409.3 370.7 413.4 377.8 404.6 385.3 397.1 387.9 389.5 390.4 381.7 381.1 392.1 372.7Z" fill="#FFB680"/><path d="M398.1 386.2C403.4 381.9 411.1 377.1 415.3 384.2 419.4 391.3 410.6 398.8 403.1 401.4 395.5 403.8 387.7 394.6 398.1 386.2Z" fill="#FFB680"/></g><path d="M685.4 345.6 689.8 324C689.8 324 735.7 316.8 763.3 304.9 795.8 290.9 804.1 320.7 804.1 320.7 804.1 320.7 762.8 327 750.6 333.7 716.4 352.5 685.4 345.6 685.4 345.6Z" fill="#FFDEAE"/></g></g></svg>