<svg width="1017.7" height="1674.7" viewBox="0 0 1017.7 1674.7" xmlns="http://www.w3.org/2000/svg" xmlns:xlink="http://www.w3.org/1999/xlink" overflow="hidden"><defs></defs><g><g><g><rect x="364.9" y="0" width="652.8" height="925.6" fill="#5B5B5B"/><g><rect x="403.1" y="36.9" width="577.9" height="851.8" fill="#ADADAD"/></g></g><g><rect x="403.1" y="106.2" width="524.9" height="63.5" fill="#FFFFFF" transform="matrix(-1 -1.22465e-16 1.22465e-16 -1 1331.05 275.835)"/><rect x="403.1" y="146.3" width="503.3" height="23.4" fill="#D3D3D3" transform="matrix(-1 -1.22465e-16 1.22465e-16 -1 1309.46 315.949)"/><rect x="861.2" y="61.5" width="89.9" height="153.3" fill="#5B5B5B" transform="matrix(-1 -1.22465e-16 1.22465e-16 -1 1812.18 276.275)"/><rect x="867.3" y="69.9" width="77.5" height="136.5" fill="#ADADAD" transform="matrix(-1 -1.22465e-16 1.22465e-16 -1 1812.18 276.275)"/><rect x="877" y="122.9" width="58.1" height="46.7" fill="#7C7C7C" transform="matrix(-1 -1.22465e-16 1.22465e-16 -1 1812.18 292.593)"/><rect x="917.4" y="132.2" width="10.6" height="28.2" fill="#D3D3D3" transform="matrix(-1 -1.22465e-16 1.22465e-16 -1 1845.36 292.593)"/><rect x="900.8" y="132.2" width="10.6" height="28.2" fill="#D3D3D3" transform="matrix(-1 -1.22465e-16 1.22465e-16 -1 1812.18 292.593)"/><rect x="884.5" y="132.2" width="10.6" height="28.2" fill="#D3D3D3" transform="matrix(-1 -1.22465e-16 1.22465e-16 -1 1779.59 292.593)"/><path d="M527.3 138.1C527.3 150.3 537.2 160.1 549.3 160.1 561.5 160.1 571.3 150.2 571.3 138.1 571.3 125.9 561.4 116.1 549.3 116.1 537.1 116.1 527.3 126 527.3 138.1Z" fill="#3C3C3C"/><path d="M470.7 137.9C470.7 148.2 479 156.5 489.3 156.5 499.6 156.5 507.9 148.2 507.9 137.9 507.9 127.6 499.6 119.3 489.3 119.3 479 119.3 470.7 127.6 470.7 137.9Z" fill="#3C3C3C"/><path d="M549.5 181.1 549.5 181.1C555 181.1 559.4 176.6 559.4 171.2L559.4 137.7C559.4 132.2 554.9 127.8 549.5 127.8L549.5 127.8C544 127.8 539.6 132.3 539.6 137.7L539.6 171.2C539.6 176.6 544.1 181.1 549.5 181.1Z" fill="#AD0E13"/><path d="M489.3 148.8 489.3 148.8C491.5 148.8 493.3 147 493.3 144.8L493.3 131.1C493.3 128.9 491.5 127.1 489.3 127.1L489.3 127.1C487.1 127.1 485.3 128.9 485.3 131.1L485.3 144.8C485.3 147 487.1 148.8 489.3 148.8Z" fill="#AD0E13"/><rect x="920.2" y="214.8" width="10" height="17.4" fill="#3C3C3C" transform="matrix(-1 -1.22465e-16 1.22465e-16 -1 1850.35 446.955)"/><rect x="901.4" y="214.8" width="10" height="17.4" fill="#3C3C3C" transform="matrix(-1 -1.22465e-16 1.22465e-16 -1 1812.77 446.955)"/><rect x="882.6" y="214.8" width="10" height="17.4" fill="#3C3C3C" transform="matrix(-1 -1.22465e-16 1.22465e-16 -1 1775.18 446.955)"/><rect x="507.9" y="188" width="9.7" height="18.4" fill="#D3D3D3" transform="matrix(-1 -1.22465e-16 1.22465e-16 -1 1025.51 394.441)"/><rect x="484.5" y="188" width="9.7" height="18.4" fill="#D3D3D3" transform="matrix(-1 -1.22465e-16 1.22465e-16 -1 978.6 394.441)"/><rect x="461" y="188" width="9.7" height="18.4" fill="#D3D3D3" transform="matrix(-1 -1.22465e-16 1.22465e-16 -1 931.689 394.441)"/><rect x="567" y="206.4" width="113.7" height="147.3" fill="#5B5B5B" transform="matrix(-1 -1.22465e-16 1.22465e-16 -1 1247.82 560.155)"/><rect x="567" y="233.4" width="113.7" height="93.3" fill="#7C7C7C" transform="matrix(-1 -1.22465e-16 1.22465e-16 -1 1247.82 560.155)"/><rect x="448.5" y="206.4" width="81.5" height="147.3" fill="#5B5B5B" transform="matrix(-1 -1.22465e-16 1.22465e-16 -1 978.6 560.155)"/><rect x="448.5" y="233.4" width="81.5" height="93.3" fill="#7C7C7C" transform="matrix(-1 -1.22465e-16 1.22465e-16 -1 978.6 560.155)"/><rect x="650.3" y="169.7" width="11.7" height="36.8" fill="#7C7C7C" transform="matrix(-1 -1.22465e-16 1.22465e-16 -1 1312.4 376.061)"/><rect x="617.4" y="169.7" width="11.7" height="36.8" fill="#7C7C7C" transform="matrix(-1 -1.22465e-16 1.22465e-16 -1 1246.62 376.061)"/><rect x="584.6" y="169.7" width="11.7" height="36.8" fill="#7C7C7C" transform="matrix(-1 -1.22465e-16 1.22465e-16 -1 1180.85 376.061)"/><rect x="624.5" y="299.1" width="48.2" height="7" fill="#D3D3D3" transform="matrix(-1 -1.22465e-16 1.22465e-16 -1 1297.13 605.28)"/><rect x="920.2" y="232.2" width="10" height="47.9" fill="#AD0E13" transform="matrix(-1 -1.22465e-16 1.22465e-16 -1 1850.35 512.255)"/><rect x="901.4" y="232.2" width="10" height="47.9" fill="#FFFFFF" transform="matrix(-1 -1.22465e-16 1.22465e-16 -1 1812.77 512.255)"/><rect x="882.6" y="232.2" width="10" height="47.9" fill="#1599EA" transform="matrix(-1 -1.22465e-16 1.22465e-16 -1 1775.18 512.255)"/><path d="M917.4 325.6 917.4 416.3C917.4 420.7 913.8 424.3 909.4 424.3 905 424.3 901.4 420.7 901.4 416.3L901.4 325.6 917.4 325.6Z" fill="#3C3C3C"/><path d="M848 325.6 848 416.3C848 420.7 844.4 424.3 840 424.3 835.6 424.3 832 420.7 832 416.3L832 325.6 848 325.6Z" fill="#3C3C3C"/><path d="M777 325.6 777 416.3C777 420.7 773.4 424.3 769 424.3 764.6 424.3 761 420.7 761 416.3L761 325.6 777 325.6Z" fill="#3C3C3C"/><g><g><path d="M948.4 855.9C948.9 854.2 959.7 813 928.5 791.3 901.4 772.4 903.9 742.8 903.9 742.5L896.9 741.8C896.8 743.2 894.1 775.8 924.5 797 951.6 815.9 941.7 853.6 941.6 854L948.4 855.9Z" fill="#3C3C3C"/></g><g><path d="M856 858.3 858.5 851.7C859 851.9 859.3 852.2 859.3 852.3 857.5 849.8 856.1 831.7 871.6 808.5 889.2 782.2 885.4 738.5 885.2 736.6L878.2 737.2C878.2 737.6 881.9 780.3 865.7 804.5 850.1 827.8 850.1 846.7 852.2 853.5 853 856.1 854.3 857.6 856 858.3Z" fill="#3C3C3C"/></g><g><path d="M815.8 848 822.8 847.9C822.5 807.8 822.2 746.8 822.7 742.9L819.3 742.2 816.8 739.7C815.4 741.1 814.9 741.6 815.8 848Z" fill="#3C3C3C"/></g><g><path d="M761.9 848.9 768.7 847C768.6 846.8 762.2 822.8 775.2 797.6 789.7 769.4 793.8 743.9 793.9 742.8L786.9 741.7C786.9 741.9 782.8 767.2 768.9 794.4 754.6 822.1 761.6 847.8 761.9 848.9Z" fill="#3C3C3C"/></g></g><g><g><path d="M734.3 855 741.3 854.9C740.7 782.8 715.9 717.3 695.1 675 674.4 632.8 676.1 532.3 676.1 531.3L669.1 531.2C669 535.4 667.4 634.4 688.8 678.2 709.3 719.8 733.7 784.3 734.3 855Z" fill="#3C3C3C"/></g><g><path d="M676.7 837.6C676.7 836.9 681.6 761.9 657.1 666.9 645.3 621 644.5 533.9 644.5 533L637.5 533.1C637.5 536.7 638.4 622 650.4 668.7 674.5 762.6 669.8 836.4 669.8 837.2L676.7 837.6Z" fill="#3C3C3C"/></g><g><path d="M591 844.9C591 844.1 592.3 764.1 601.8 731.3 613.5 691.2 612.3 537.7 612.2 531.2L605.2 531.3C605.2 532.9 606.4 690.2 595 729.4 585.2 763.1 583.9 841.5 583.9 844.8L591 844.9Z" fill="#3C3C3C"/></g><g><path d="M635.3 837.7C635.4 836.4 637.8 805.1 631.6 775.5 628.7 761.7 619 740.1 608.8 717.3 596.8 690.6 584.4 663 582.2 646.3 578.1 615.2 578.2 533.9 578.2 533.1L571.2 533.1C571.2 536.5 571.1 615.6 575.2 647.2 577.5 664.9 590.2 693 602.4 720.2 612.5 742.6 622 763.8 624.8 776.9 630.8 805.6 628.4 836.8 628.4 837.1L635.3 837.7Z" fill="#3C3C3C"/></g><g><path d="M426 845.1 433 844.6C431.4 821 439 761.2 445 713.2 447.3 695.3 449.4 678.5 450.9 665.1 456.4 614.9 459.6 529.6 459.7 528.7L452.7 528.4C452.7 529.3 449.5 614.3 444 664.2 442.5 677.6 440.4 694.3 438.1 712.2 431.6 763.2 424.3 820.8 426 845.1Z" fill="#3C3C3C"/></g><g><path d="M548 845C548 844.7 549.1 810.7 545.3 782.3 542 757.9 532.6 732.4 521.7 702.8 516.2 687.9 510.5 672.5 505.1 655.7 493.3 619.6 494.7 533.9 494.7 533.1L487.7 533C487.6 536.6 486.3 620.7 498.5 657.9 504 674.8 509.7 690.3 515.2 705.2 526 734.4 535.2 759.6 538.4 783.2 542.1 811 541 844.4 541 844.7L548 845Z" fill="#3C3C3C"/></g><g><path d="M477.1 844.9C477.1 844.3 478.5 783.4 481.9 748.7 484.1 726.8 494.2 702.6 503.2 681.3 508.4 668.8 513.4 657.1 516.2 647.1 528.1 604.8 527 534.1 526.9 531.1L519.9 531.2C519.9 531.9 521 603.9 509.4 645.1 506.7 654.6 501.9 666.2 496.7 678.4 487.5 700.2 477.1 724.9 474.9 747.8 471.4 782.8 470.1 843.9 470.1 844.5L477.1 844.9Z" fill="#3C3C3C"/></g></g><g><rect x="729" y="280.1" width="222" height="46.6" fill="#FFFFFF" transform="matrix(-1 -1.22465e-16 1.22465e-16 -1 1680.04 606.789)"/><rect x="880.3" y="288.6" width="62.3" height="30" fill="#7C7C7C" transform="matrix(-1 -1.22465e-16 1.22465e-16 -1 1822.75 607.065)"/><rect x="808.9" y="288.6" width="62.3" height="30" fill="#7C7C7C" transform="matrix(-1 -1.22465e-16 1.22465e-16 -1 1680.04 607.065)"/><rect x="737.8" y="288.6" width="62.3" height="30" fill="#7C7C7C" transform="matrix(-1 -1.22465e-16 1.22465e-16 -1 1537.92 607.065)"/><rect x="922.7" y="288.6" width="7.5" height="30" fill="#3C3C3C" transform="matrix(-1 -1.22465e-16 1.22465e-16 -1 1852.85 607.065)"/><rect x="853.2" y="288.6" width="7.5" height="30" fill="#3C3C3C" transform="matrix(-1 -1.22465e-16 1.22465e-16 -1 1713.95 607.065)"/><rect x="780.1" y="288.6" width="7.5" height="30" fill="#3C3C3C" transform="matrix(-1 -1.22465e-16 1.22465e-16 -1 1567.72 607.065)"/></g><rect x="904.4" y="422.1" width="10" height="121" fill="#AD0E13" transform="matrix(-1 -1.22465e-16 1.22465e-16 -1 1818.79 965.273)"/><rect x="835" y="422.1" width="10" height="121" fill="#FFFFFF" transform="matrix(-1 -1.22465e-16 1.22465e-16 -1 1680.04 965.273)"/><rect x="764" y="422.1" width="10" height="121" fill="#1599EA" transform="matrix(-1 -1.22465e-16 1.22465e-16 -1 1537.92 965.273)"/><g><rect x="403.1" y="835.3" width="577.9" height="28.2" fill="#3C3C3C" transform="matrix(-1 -1.22465e-16 1.22465e-16 -1 1384.05 1698.83)"/><path d="M940.4 847.9C940.4 851.8 943.6 854.9 947.4 854.9 951.2 854.9 954.4 851.7 954.4 847.9 954.4 844 951.2 840.9 947.4 840.9 943.6 840.9 940.4 844.1 940.4 847.9Z" fill="#FFFFFF"/><circle cx="901.4" cy="847.9" r="7" fill="#FFFFFF"/><circle cx="855.3" cy="847.9" r="7" fill="#FFFFFF"/><path d="M802.1 847.9C802.1 851.8 805.3 854.9 809.1 854.9 813 854.9 816.1 851.7 816.1 847.9 816.1 844 812.9 840.9 809.1 840.9 805.3 840.9 802.1 844.1 802.1 847.9Z" fill="#FFFFFF"/><circle cx="763.1" cy="847.9" r="7" fill="#FFFFFF"/><circle cx="717" cy="847.9" r="7" fill="#FFFFFF"/><circle cx="670.9" cy="847.9" r="7" fill="#FFFFFF"/><circle cx="624.8" cy="847.9" r="7" fill="#FFFFFF"/><circle cx="578.7" cy="847.9" r="7" fill="#FFFFFF"/><circle cx="532.6" cy="847.9" r="7" fill="#FFFFFF"/><circle cx="486.5" cy="847.9" r="7" fill="#FFFFFF"/><circle cx="440.4" cy="847.9" r="7" fill="#FFFFFF"/></g><rect x="709.9" y="543.1" width="271" height="22" fill="#FFFFFF" transform="matrix(-1 -1.22465e-16 1.22465e-16 -1 1690.9 1108.3)"/><rect x="665.5" y="353.7" width="15.3" height="116.3" fill="#3C3C3C" transform="matrix(-1 -1.22465e-16 1.22465e-16 -1 1346.31 823.774)"/><rect x="633.3" y="353.7" width="15.3" height="116.3" fill="#3C3C3C" transform="matrix(-1 -1.22465e-16 1.22465e-16 -1 1281.87 823.774)"/><rect x="601.1" y="353.7" width="15.3" height="116.3" fill="#3C3C3C" transform="matrix(-1 -1.22465e-16 1.22465e-16 -1 1217.43 823.774)"/><rect x="567" y="353.7" width="15.3" height="116.3" fill="#3C3C3C" transform="matrix(-1 -1.22465e-16 1.22465e-16 -1 1149.34 823.774)"/><rect x="514.8" y="353.7" width="15.3" height="116.3" fill="#3C3C3C" transform="matrix(-1 -1.22465e-16 1.22465e-16 -1 1044.86 823.774)"/><rect x="482.6" y="353.7" width="15.3" height="116.3" fill="#3C3C3C" transform="matrix(-1 -1.22465e-16 1.22465e-16 -1 980.426 823.774)"/><rect x="448.5" y="353.7" width="15.3" height="116.3" fill="#3C3C3C" transform="matrix(-1 -1.22465e-16 1.22465e-16 -1 912.337 823.774)"/><g><path d="M672.6 456.8 672.6 456.8C679.6 456.8 685.4 462.5 685.4 469.6L685.4 472.9C685.4 479.9 679.7 485.7 672.6 485.7L672.6 485.7C665.6 485.7 659.8 480 659.8 472.9L659.8 469.6C659.9 462.6 665.6 456.8 672.6 456.8Z" fill="#FFFFFF"/><path d="M685.4 469.5 685.4 523.7C685.4 530.7 679.7 536.5 672.6 536.5 665.6 536.5 659.8 530.8 659.8 523.7L659.8 469.5 685.4 469.5Z" fill="#7C7C7C"/><path d="M669.6 463.4C669.6 465.2 671 466.6 672.8 466.6 674.6 466.6 676 465.2 676 463.4 676 461.6 674.6 460.2 672.8 460.2 671 460.2 669.6 461.6 669.6 463.4Z" fill="#3C3C3C"/></g><g><path d="M640.9 456.8 640.9 456.8C647.9 456.8 653.7 462.5 653.7 469.6L653.7 472.9C653.7 479.9 648 485.7 640.9 485.7L640.9 485.7C633.9 485.7 628.1 480 628.1 472.9L628.1 469.6C628.2 462.6 633.9 456.8 640.9 456.8Z" fill="#FFFFFF"/><path d="M653.7 469.5 653.7 523.7C653.7 530.7 648 536.5 640.9 536.5 633.8 536.5 628.1 530.8 628.1 523.7L628.1 469.5 653.7 469.5Z" fill="#7C7C7C"/><path d="M637.9 463.4C637.9 465.2 639.3 466.6 641.1 466.6 642.9 466.6 644.3 465.2 644.3 463.4 644.3 461.6 642.9 460.2 641.1 460.2 639.3 460.2 637.9 461.6 637.9 463.4Z" fill="#3C3C3C"/></g><g><path d="M608.7 456.8 608.7 456.8C615.7 456.8 621.5 462.5 621.5 469.6L621.5 472.9C621.5 479.9 615.8 485.7 608.7 485.7L608.7 485.7C601.7 485.7 595.9 480 595.9 472.9L595.9 469.6C596 462.6 601.7 456.8 608.7 456.8Z" fill="#FFFFFF"/><path d="M621.5 469.5 621.5 523.7C621.5 530.7 615.8 536.5 608.7 536.5 601.7 536.5 595.9 530.8 595.9 523.7L595.9 469.5 621.5 469.5Z" fill="#7C7C7C"/><path d="M605.7 463.4C605.7 465.2 607.1 466.6 608.9 466.6 610.7 466.6 612.1 465.2 612.1 463.4 612.1 461.6 610.7 460.2 608.9 460.2 607.1 460.2 605.7 461.6 605.7 463.4Z" fill="#3C3C3C"/></g><g><path d="M574.7 456.8 574.7 456.8C581.7 456.8 587.5 462.5 587.5 469.6L587.5 472.9C587.5 479.9 581.8 485.7 574.7 485.7L574.7 485.7C567.7 485.7 561.9 480 561.9 472.9L561.9 469.6C561.9 462.6 567.7 456.8 574.7 456.8Z" fill="#FFFFFF"/><path d="M587.4 469.5 587.4 523.7C587.4 530.7 581.7 536.5 574.6 536.5 567.6 536.5 561.8 530.8 561.8 523.7L561.8 469.5 587.4 469.5Z" fill="#7C7C7C"/><path d="M571.6 463.4C571.6 465.2 573 466.6 574.8 466.6 576.6 466.6 578 465.2 578 463.4 578 461.6 576.6 460.2 574.8 460.2 573.1 460.2 571.6 461.6 571.6 463.4Z" fill="#3C3C3C"/></g><g><path d="M523.3 456.8 523.3 456.8C530.3 456.8 536.1 462.5 536.1 469.6L536.1 472.9C536.1 479.9 530.4 485.7 523.3 485.7L523.3 485.7C516.3 485.7 510.5 480 510.5 472.9L510.5 469.6C510.6 462.6 516.3 456.8 523.3 456.8Z" fill="#FFFFFF"/><path d="M536.1 469.5 536.1 523.7C536.1 530.7 530.4 536.5 523.3 536.5 516.3 536.5 510.5 530.8 510.5 523.7L510.5 469.5 536.1 469.5Z" fill="#7C7C7C"/><path d="M520.3 463.4C520.3 465.2 521.7 466.6 523.5 466.6 525.3 466.6 526.7 465.2 526.7 463.4 526.7 461.6 525.3 460.2 523.5 460.2 521.7 460.2 520.3 461.6 520.3 463.4Z" fill="#3C3C3C"/></g><g><path d="M491.1 456.8 491.1 456.8C498.1 456.8 503.9 462.5 503.9 469.6L503.9 472.9C503.9 479.9 498.2 485.7 491.1 485.7L491.1 485.7C484.1 485.7 478.3 480 478.3 472.9L478.3 469.6C478.4 462.6 484.1 456.8 491.1 456.8Z" fill="#FFFFFF"/><path d="M503.9 469.5 503.9 523.7C503.9 530.7 498.2 536.5 491.1 536.5 484 536.5 478.3 530.8 478.3 523.7L478.3 469.5 503.9 469.5Z" fill="#7C7C7C"/><path d="M488.1 463.4C488.1 465.2 489.5 466.6 491.3 466.6 493.1 466.6 494.5 465.2 494.5 463.4 494.5 461.6 493.1 460.2 491.3 460.2 489.5 460.2 488.1 461.6 488.1 463.4Z" fill="#3C3C3C"/></g><g><path d="M457.1 456.8 457.1 456.8C464.1 456.8 469.9 462.5 469.9 469.6L469.9 472.9C469.9 479.9 464.2 485.7 457.1 485.7L457.1 485.7C450.1 485.7 444.3 480 444.3 472.9L444.3 469.6C444.3 462.6 450.1 456.8 457.1 456.8Z" fill="#FFFFFF"/><path d="M469.8 469.5 469.8 523.7C469.8 530.7 464.1 536.5 457 536.5 449.9 536.5 444.2 530.8 444.2 523.7L444.2 469.5 469.8 469.5Z" fill="#7C7C7C"/><path d="M454 463.4C454 465.2 455.4 466.6 457.2 466.6 459 466.6 460.4 465.2 460.4 463.4 460.4 461.6 459 460.2 457.2 460.2 455.4 460.2 454 461.6 454 463.4Z" fill="#3C3C3C"/></g><rect x="709.9" y="565.2" width="271" height="183.2" fill="#7C7C7C" transform="matrix(-1 -1.22465e-16 1.22465e-16 -1 1690.9 1313.57)"/><rect x="877.9" y="581.6" width="89.6" height="150.3" fill="#5B5B5B" transform="matrix(-1 -1.22465e-16 1.22465e-16 -1 1845.36 1313.57)"/><rect x="724.2" y="581.6" width="133.5" height="150.3" fill="#5B5B5B" transform="matrix(-1 -1.22465e-16 1.22465e-16 -1 1581.82 1313.57)"/><rect x="894.3" y="594.8" width="60.2" height="27" fill="#FFFFFF" transform="matrix(-1 -1.22465e-16 1.22465e-16 -1 1848.89 1216.67)"/><rect x="833" y="594.8" width="13.5" height="27" fill="#FFFFFF" transform="matrix(-1 -1.22465e-16 1.22465e-16 -1 1679.56 1216.67)"/><rect x="808.8" y="594.8" width="13.5" height="27" fill="#FFFFFF" transform="matrix(-1 -1.22465e-16 1.22465e-16 -1 1631.08 1216.67)"/><rect x="784.5" y="594.8" width="13.5" height="27" fill="#FFFFFF" transform="matrix(-1 -1.22465e-16 1.22465e-16 -1 1582.6 1216.67)"/><rect x="760.3" y="594.8" width="13.5" height="27" fill="#FFFFFF" transform="matrix(-1 -1.22465e-16 1.22465e-16 -1 1534.12 1216.67)"/><rect x="736.1" y="594.8" width="13.5" height="27" fill="#FFFFFF" transform="matrix(-1 -1.22465e-16 1.22465e-16 -1 1485.64 1216.67)"/><rect x="895.1" y="640.3" width="60.2" height="7.5" fill="#3C3C3C" transform="matrix(-1 -1.22465e-16 1.22465e-16 -1 1850.35 1288.1)"/><rect x="895.1" y="662.9" width="60.2" height="7.5" fill="#3C3C3C" transform="matrix(-1 -1.22465e-16 1.22465e-16 -1 1850.35 1333.25)"/><path d="M905.8 703.9C905.8 714.2 914.1 722.5 924.4 722.5 934.7 722.5 943 714.2 943 703.9 943 693.6 934.7 685.3 924.4 685.3 914.2 685.3 905.8 693.6 905.8 703.9Z" fill="#3C3C3C"/><path d="M924.4 714.8 924.4 714.8C926.6 714.8 928.4 713 928.4 710.8L928.4 697.1C928.4 694.9 926.6 693.1 924.4 693.1L924.4 693.1C922.2 693.1 920.4 694.9 920.4 697.1L920.4 710.8C920.4 713 922.2 714.8 924.4 714.8Z" fill="#AD0E13"/><path d="M801.9 703.9C801.9 714.2 810.2 722.5 820.5 722.5 830.8 722.5 839.1 714.2 839.1 703.9 839.1 693.6 830.8 685.3 820.5 685.3 810.2 685.3 801.9 693.6 801.9 703.9Z" fill="#3C3C3C"/><path d="M820.5 714.8 820.5 714.8C822.7 714.8 824.5 713 824.5 710.8L824.5 697.1C824.5 694.9 822.7 693.1 820.5 693.1L820.5 693.1C818.3 693.1 816.5 694.9 816.5 697.1L816.5 710.8C816.4 713 818.2 714.8 820.5 714.8Z" fill="#AD0E13"/><path d="M742.3 703.9C742.3 714.2 750.6 722.5 760.9 722.5 771.2 722.5 779.5 714.2 779.5 703.9 779.5 693.6 771.2 685.3 760.9 685.3 750.6 685.3 742.3 693.6 742.3 703.9Z" fill="#3C3C3C"/><path d="M761 714.8 761 714.8C763.2 714.8 765 713 765 710.8L765 697.1C765 694.9 763.2 693.1 761 693.1L761 693.1C758.8 693.1 757 694.9 757 697.1L757 710.8C756.9 713 758.7 714.8 761 714.8Z" fill="#AD0E13"/><g><path d="M793.6 132.3 800.6 132C800.6 131.8 800 116 800.6 86.8 801 67.8 806.1 58.8 810.3 57 812.2 56.2 814.1 56.7 816.1 58.5 824.8 66.3 825.4 86.6 824.9 93.8L831.9 94.3C832 93.1 833.8 65 820.7 53.3 816.6 49.7 811.8 48.7 807.4 50.6 798.9 54.3 793.8 67.5 793.4 86.7 793 116.2 793.6 132.2 793.6 132.3Z" fill="#FFFFFF"/></g><rect x="824" y="86.8" width="9.2" height="19.4" fill="#3C3C3C" transform="matrix(-1 -1.22465e-16 1.22465e-16 -1 1657.14 193.006)"/><g><path d="M737 132.3 744 132C744 131.8 743.4 116 744 86.8 744.4 67.8 749.5 58.8 753.7 57 755.6 56.2 757.5 56.7 759.5 58.5 768.2 66.3 768.8 86.6 768.3 93.8L775.3 94.3C775.4 93.1 777.2 65 764.1 53.3 760 49.7 755.2 48.7 750.8 50.6 742.3 54.3 737.2 67.5 736.8 86.7 736.4 116.2 736.9 132.2 737 132.3Z" fill="#FFFFFF"/></g><rect x="767.3" y="86.8" width="9.2" height="19.4" fill="#3C3C3C" transform="matrix(-1 -1.22465e-16 1.22465e-16 -1 1543.79 193.006)"/><g><path d="M678.2 132.3 685.2 132C685.2 131.8 684.6 116 685.2 86.8 685.6 67.8 690.7 58.8 694.9 57 696.8 56.2 698.7 56.7 700.7 58.5 709.4 66.3 710 86.6 709.5 93.8L716.5 94.3C716.6 93.1 718.4 65 705.3 53.3 701.2 49.7 696.4 48.7 692 50.6 683.5 54.3 678.4 67.5 678 86.7 677.6 116.2 678.2 132.2 678.2 132.3Z" fill="#FFFFFF"/></g><rect x="708.5" y="86.8" width="9.2" height="19.4" fill="#3C3C3C" transform="matrix(-1 -1.22465e-16 1.22465e-16 -1 1426.25 193.006)"/><g><path d="M619.4 132.3 626.4 132C626.4 131.8 625.8 116 626.4 86.8 626.8 67.8 631.9 58.8 636.1 57 638 56.2 639.9 56.7 641.9 58.5 650.6 66.3 651.2 86.6 650.7 93.8L657.7 94.3C657.8 93.1 659.6 65 646.5 53.3 642.4 49.7 637.6 48.7 633.2 50.6 624.7 54.3 619.6 67.5 619.2 86.7 618.8 116.2 619.4 132.2 619.4 132.3Z" fill="#FFFFFF"/></g><rect x="649.8" y="86.8" width="9.2" height="19.4" fill="#3C3C3C" transform="matrix(-1 -1.22465e-16 1.22465e-16 -1 1308.72 193.006)"/><rect x="458.9" y="91" width="117.3" height="15.2" fill="#5B5B5B" transform="matrix(-1 -1.22465e-16 1.22465e-16 -1 1035.2 197.181)"/><rect x="547.7" y="75.8" width="9.5" height="15.2" fill="#AD0E13" transform="matrix(-1 -1.22465e-16 1.22465e-16 -1 1104.87 166.81)"/><rect x="524.4" y="75.8" width="9.5" height="15.2" fill="#AD0E13" transform="matrix(-1 -1.22465e-16 1.22465e-16 -1 1058.18 166.81)"/><rect x="501" y="75.8" width="9.5" height="15.2" fill="#AD0E13" transform="matrix(-1 -1.22465e-16 1.22465e-16 -1 1011.49 166.81)"/><rect x="477.7" y="75.8" width="9.5" height="15.2" fill="#AD0E13" transform="matrix(-1 -1.22465e-16 1.22465e-16 -1 964.796 166.81)"/></g></g><g><g><g><g><g><g><path d="M257.2 148.4C253 132.3 248.7 124.6 231.7 112.8 214.7 101 148.3 89.2 116.1 116.5 83.9 143.8 96.6 194.3 101.9 211.6 107.9 231.2 118.6 255.5 122.4 282.6 124.1 294.9 112.5 322.3 108.8 329.4 108.8 329.4 108.8 329.4 108.8 329.5 122 345.4 146.3 351.7 165.7 353.6 176.7 354.7 186.2 353.7 195.1 351.6 193.8 350 192.7 348.3 192 346.3 189.5 339.4 190.8 310 196.8 303.2 205.4 293.5 215.6 294.2 228.1 296.8 244.8 300.2 241 278.7 251.5 275.2 258.3 272.9 253.9 269.4 252.2 265.9 253.3 263.5 258.6 262.3 259.7 260.2 262.4 255.1 256.5 253.2 257.3 250.6 259.4 244 278.1 243.7 276.4 236.6 273.4 224.3 251.9 200.4 254.9 192.3 260.9 175.9 261.1 163.6 257.2 148.4Z" fill="#FFB680"/><path d="M255.8 143.6C255.8 143.6 233.5 135 203.2 158 183.8 172.7 183.2 190 157.3 197.1 135.1 203.3 139.1 219.1 139.1 219.1L120 273.1C120 273.1 86.4 244.6 83.5 181.3 80.7 120.4 99.1 113.1 99.1 113.1 99.1 113.1 131.9 87.6 197.4 92.7 234.3 95.5 255.9 107.5 255.9 107.5 255.9 107.5 251.7 125.9 255.8 143.6Z" fill="#3C3C3C"/><path d="M162.8 199.1C162.8 199.1 162.1 179 143.1 181.4 124.1 183.8 121.9 210.7 142.6 226.6 163.4 242.4 162.8 199.1 162.8 199.1Z" fill="#FFB680"/></g></g></g></g><g><path d="M273.3 140.7 273.3 140.7 217.6 134.9C217.6 134.9 223.1 104.4 249.7 96 238.7 81.2 220.9 67.4 191.8 63.3 97.9 50.2 83 139.2 83 139.2L338.8 169 342.1 152.7 273.3 140.7Z" fill="#AD0E13"/><path d="M217.5 134.9 273.2 140.7 273.2 140.7 267 139.6C267 139.6 265.2 116.9 249.7 96 223 104.5 217.5 134.9 217.5 134.9Z" fill="#FF6E83"/></g></g><path d="M215.4 414.5 319 568.1C319 568.1 372.7 568.1 398.6 564.9 425.9 561.5 475.8 555.6 496.1 540.8 513.9 527.9 532.5 504.6 563.1 505.2 583.4 505.6 576.6 540.8 554.6 562.8 521.1 596.3 511.6 590.8 459.2 608.2 406.8 625.6 361 647.7 320.4 651.3 292.1 653.8 198.4 562.8 198.4 562.8L215.4 414.5Z" fill="#ED8A40"/><g><path d="M180.8 1648.7C188.3 1643.6 194.8 1640.4 201.4 1639.3 195.7 1629.4 187.2 1619.6 179 1613.8 160.2 1600.2 120.9 1574.8 120.9 1574.8L28.1 1565.7C28.1 1565.7 30.2 1589.6 30.5 1605.3 48.3 1619.6 77.4 1640.9 100.9 1648.7 137.7 1660.9 162.2 1661.4 180.8 1648.7Z" fill="#AD0E13"/><path d="M477 1640.6C483.8 1636 489.8 1632.9 495.7 1631.5 490.1 1621.2 481.1 1610.8 472.6 1604.7 453.8 1591.1 414.5 1565.7 414.5 1565.7L330.1 1572 321.7 1572.6C321.7 1572.6 323.5 1583.6 324 1594.9 341.5 1609.1 372.4 1632.3 397.1 1640.5 433.8 1652.7 458.4 1653.3 477 1640.6Z" fill="#AD0E13"/><path d="M30.5 1613.3C29.8 1627 54.9 1643.8 90 1659.8 125.1 1675.8 182.7 1678.3 200.9 1670.1 211.2 1665.5 208.8 1652.3 201.4 1639.3 194.8 1640.4 188.3 1643.6 180.8 1648.7 162.2 1661.4 137.6 1660.9 101 1648.7 77.5 1640.9 48.4 1619.6 30.6 1605.3 30.6 1608.3 30.6 1611.1 30.5 1613.3Z" fill="#C62242"/><path d="M324.1 1604.2C323.4 1617.9 348.5 1634.7 383.6 1650.7 418.7 1666.7 476.3 1669.2 494.5 1661 504.5 1656.5 502.6 1644 495.7 1631.5 489.8 1632.9 483.8 1635.9 477 1640.6 458.4 1653.3 433.8 1652.8 397.2 1640.6 372.4 1632.4 341.6 1609.2 324.1 1595 324.2 1598.1 324.2 1601.3 324.1 1604.2Z" fill="#C62242"/></g><path d="M69.4 1573.4C69.4 1573.4 96.2 1599.7 128.1 1620.1 153.8 1636.5 175.2 1631.4 153.7 1610.6 132.3 1589.8 111.5 1573.8 111.5 1573.8L69.4 1573.4Z" fill="#FFFFFF"/><path d="M369.5 1573.4C369.5 1573.4 396.3 1599.7 428.2 1620.1 453.9 1636.5 475.3 1631.4 453.8 1610.6 432.4 1589.8 411.6 1573.8 411.6 1573.8L369.5 1573.4Z" fill="#FFFFFF"/><g><path d="M83.2 798.9C102.1 810.8 178.5 778.2 212.5 784.3 233.7 788.1 267.1 795.9 289.2 801.2 277.5 678.2 282.5 528.7 276.4 506.1 260 444.9 230.7 394 195 351.5 152 364.2 108.7 329.4 108.7 329.4 108.7 329.4 59.5 356.5 38 383.2 12.5 414.8 11.1 506.8 14.1 587.1 33.3 625.6 57.1 673.8 66 693.1 81.8 727.3 64.4 787.1 83.2 798.9Z" fill="#AD0E13"/><path d="M15.8 852.5C15.8 852.5 141.7 861.5 185.7 859 216.3 857.3 293.4 837.7 293.4 837.7 291.8 825.9 290.5 813.7 289.3 801.3 267.1 796 233.8 788.2 212.6 784.4 178.6 778.3 102.2 810.8 83.3 799 64.4 787.2 81.8 727.3 66 693.1 57.1 673.9 33.3 625.7 14.1 587.1 15.1 613.4 16.6 638.5 17.8 659.8 22.2 732.7 12.7 801.4 15.8 852.5Z" fill="#C62242"/></g><g><path d="M279.8 1084.7C298.4 1146.4 313.6 1201.8 334 1224 354.3 1246.2 399.1 1280.1 386.9 1293.6 374.7 1307.1 362.8 1291.9 351 1293.6 339.2 1295.3 342.9 1323.9 348.5 1355.4 350.8 1368.3 366 1498.5 375.7 1581.7L456 1582.2C454.4 1491.2 451.1 1208.6 432.3 1165.9 413.2 1122.5 321.7 862.5 293.5 793.9 282.2 797.1 246.6 811.6 236.3 813.9 165.7 829.8 64.2 806.3 16 797.5 3.1 863.5 2.9 939 0.6 975.5-4.3 1052.9 22.8 1247.2 17.8 1295.3 13.8 1334 15.8 1512.4 12.9 1581.3L146.9 1581.3C151.2 1507.9 162.7 1309 162.7 1274.9 162.7 1216.8 198.3 997.7 198.3 997.7L210.9 977.5C211 977.5 261.2 1023.1 279.8 1084.7Z" fill="#1599EA"/><path d="M312.7 1581.3 375.6 1581.7C365.9 1498.5 350.7 1368.3 348.4 1355.4 342.9 1324 339.1 1295.3 350.9 1293.6 362.7 1291.9 374.6 1307.1 386.8 1293.6 399 1280.1 354.2 1246.2 333.9 1224 313.6 1201.8 298.4 1146.4 279.7 1084.7 261.1 1023 210.9 977.4 210.9 977.4L198.3 997.6C198.3 997.6 291.2 1208.4 297.3 1254.1 302.5 1291.7 310.1 1505.1 312.7 1581.3Z" fill="#1779AF"/></g><path d="M69.4 821.2C69.4 821.2 141.8 690.3 162.5 632.4 183.2 574.4 198.4 486.1 198.4 486.1 198.4 486.1 245.4 480.5 265.1 471.3 303.5 528.5 296.8 864 296.8 864L69.4 821.2Z" fill="#1599EA"/><path d="M180.8 540.5C170.9 519.8 150.8 472.4 145.9 463.9 86.8 359.6 14.8 355.3 18 457.3 19.4 504 53.1 563.2 75.3 603.2 112.8 581.1 144.5 564.6 180.8 540.5Z" fill="#C62242"/><path d="M50.1 370.6C50.1 370.6 87.7 359 142.2 412 179.5 448.2 197.5 485.4 208.4 506.9 219.4 528.7 237.5 516.3 230.8 496.9 221.8 470.8 196 421.7 153.7 387.7 101 345.4 71 354 71 354L50.1 370.6Z" fill="#3C3C3C"/><path d="M509 587.3 493.7 578.2 424.1 493.5 433.5 485.8 503.1 570.4Z" fill="#3C3C3C"/><path d="M492.3 531.2C489.2 511.7 445.7 509.3 422.7 519 399.7 528.7 393.6 549.8 378.3 560.5 347 582.3 230.4 614.7 212.5 616.8 203 617.9 184.8 575.9 169.6 548.9 130.7 573.8 141.1 567.1 101 590 133.1 652.7 160.1 686.7 177.4 693.1 195 699.7 252.4 679.4 293 656.8 315.6 644.2 355 621.1 388.5 608.3 415.4 598 455.1 583.8 464.2 572.7 479.6 554.2 495.4 550.6 492.3 531.2Z" fill="#FFB680"/><rect x="524.8" y="421.5" width="20.3" height="315.5" fill="#3C3C3C" transform="matrix(0.9676 0.2524 -0.2524 0.9676 163.501 -116.252)"/><rect x="511.8" y="434.1" width="13.5" height="281.8" fill="#ADADAD" transform="matrix(0.9676 0.2524 -0.2524 0.9676 161.94 -112.282)"/><path d="M570.6 507.9C565.8 493.2 548.9 493.2 534.9 521.9 527.7 536.8 545.8 577.2 563.5 549.6 574.3 533 575.9 524.1 570.6 507.9Z" fill="#ED8A40"/><path d="M13 820.6 16.5 784.3C16.5 784.3 133.5 809.3 201.5 806.7 269.5 804.1 297.4 776.8 297.4 776.8L303.7 820C303.7 820 259.6 846.1 168.2 840.9 88 836.4 13 820.6 13 820.6Z" fill="#1779AF"/><path d="M128 816.1C128 816.1 121.8 904.6 88.1 937.7 58.7 966.5 1.8 962 1.8 962L0.3 984.6C0.3 984.6 72.9 994.2 113 945.6 153.1 897 151.3 822.1 151.3 822.1L128 816.1Z" fill="#1779AF"/><path d="M198.4 997.7 214.4 990.9C214.4 990.9 234.1 951.2 238.6 919.6 243.1 888 247.1 832.7 244.8 832.7 242.5 832.7 218.9 835.3 218.9 835.3 218.9 835.3 218.5 875.6 215 915.2 212.4 943.7 198.4 997.7 198.4 997.7Z" fill="#1779AF"/><path d="M224.5 496.9C224.5 501.1 221.5 504.5 217.7 504.5 214 504.5 210.9 501.1 210.9 496.9 210.9 492.7 213.9 489.3 217.7 489.3 221.5 489.2 224.5 492.6 224.5 496.9Z" fill="#FFFFFF"/></g></g></svg>