<svg width="868.6" height="1627.6" viewBox="0 0 868.6 1627.6" xmlns="http://www.w3.org/2000/svg" xmlns:xlink="http://www.w3.org/1999/xlink" overflow="hidden"><defs></defs><g><g><rect x="350.3" y="0" width="518.3" height="495.3" fill="#5B5B5B"/><rect x="377.8" y="24.9" width="463.3" height="445.4" fill="#ADADAD"/><g><rect x="410.5" y="37.8" width="13.2" height="24.3" fill="#AD0E13"/><rect x="455.5" y="37.8" width="13.2" height="24.3" fill="#AD0E13"/><rect x="500.5" y="37.8" width="13.2" height="24.3" fill="#AD0E13"/><rect x="545.5" y="37.8" width="13.2" height="24.3" fill="#AD0E13"/><rect x="590.5" y="37.8" width="13.2" height="24.3" fill="#AD0E13"/><rect x="635.6" y="37.8" width="13.2" height="24.3" fill="#AD0E13"/></g><g><g><path d="M391.2 432.4 397.7 432.4C399.9 416.2 403.7 398.7 410.5 384.9 421.2 363 419.8 336.6 419.7 335.5L413.4 335.9C413.4 336.2 414.8 361.8 404.8 382.2 397.4 397 393.4 415.5 391.2 432.4Z" fill="#AD0E13"/></g><g><path d="M464.7 432.4 471.9 432.4C469.1 426.8 465.7 421.2 461.2 416 441.7 393.5 447.7 336.5 447.7 335.9L441.4 335.2C441.1 337.7 435.1 395.6 456.4 420.1 459.7 424 462.4 428.1 464.7 432.4Z" fill="#AD0E13"/></g><g><path d="M442.3 432.4C445 423.5 451.4 416.1 457.8 409 465.7 400 473.2 391.6 473.3 380.4 473.6 359.5 473.3 338.4 473.3 338.2L467 338.3C467 338.5 467.3 359.5 467 380.3 466.9 389.1 460.2 396.7 453 404.8 446.1 412.6 438.6 421.3 435.8 432.4L442.3 432.4Z" fill="#AD0E13"/></g><g><path d="M523.8 432.4 530.2 432.4C527.9 418.1 523.7 403.7 516.1 394.4 498.2 372.6 503.5 339.1 503.6 338.8L497.3 337.8C497 339.3 491.4 374.4 511.2 398.5 517.9 406.5 521.7 419.3 523.8 432.4Z" fill="#AD0E13"/></g><g><path d="M553.4 432.4C555.3 417.3 557.1 402 557.6 389.4 558.5 364.3 559.9 335.7 559.9 335.7L553.6 335.4C553.6 335.4 552.3 364 551.3 389.1 550.8 401.7 549 417.1 547.1 432.3L553.4 432.3Z" fill="#AD0E13"/></g><g><path d="M596.7 409C603 416.3 609.9 424.2 613.2 432.4L620 432.4C616.6 422.2 608.4 412.8 601.5 404.8 596.1 398.5 590.9 392.6 590.1 388.6 587.8 377 590.4 338.8 590.4 338.4L584.1 338C584 339.6 581.4 377.5 583.9 389.9 585 395.5 590.4 401.7 596.7 409Z" fill="#AD0E13"/></g><g><path d="M590.5 432.4C593.4 424.8 597.4 416 601.2 407.8 604.8 399.9 608.2 392.4 610.2 386.9 616 371 616.2 339.6 616.2 338.2L609.9 338.2C609.9 338.5 609.7 369.9 604.3 384.7 602.4 390 599 397.3 595.5 405.1 591.3 414.2 587 423.9 583.9 432.3L590.5 432.3Z" fill="#AD0E13"/></g><g><path d="M665.6 432.4 672.2 432.4C667.1 415.6 659.6 399.7 652.2 390.5 639.1 374.1 645.8 339.3 645.8 338.9L639.6 337.7C639.3 339.2 632.3 375.8 647.2 394.5 653.9 402.7 660.7 417.1 665.6 432.4Z" fill="#AD0E13"/></g></g><rect x="377.8" y="423.6" width="463.3" height="17.9" fill="#FFFFFF"/><g><rect x="412.2" y="273.4" width="8.5" height="32.3" fill="#3C3C3C" transform="matrix(-1 -1.22465e-16 1.22465e-16 -1 832.974 579.222)"/><g><path d="M416.2 298.4 416.2 298.4C420.1 298.4 423.3 301.6 423.3 305.5L423.3 307.3C423.3 311.2 420.1 314.4 416.2 314.4L416.2 314.4C412.3 314.4 409.1 311.2 409.1 307.3L409.1 305.5C409.1 301.6 412.3 298.4 416.2 298.4Z" fill="#FFFFFF"/><path d="M423.3 305.5 423.3 335.7C423.3 339.6 420.1 342.8 416.2 342.8 412.3 342.8 409.1 339.6 409.1 335.7L409.1 305.5 423.3 305.5Z" fill="#7C7C7C"/><circle cx="416.3" cy="302.1" r="1.8" fill="#3C3C3C"/></g></g><g><rect x="440.9" y="273.4" width="8.5" height="32.3" fill="#3C3C3C" transform="matrix(-1 -1.22465e-16 1.22465e-16 -1 890.308 579.222)"/><g><path d="M444.9 298.4 444.9 298.4C448.8 298.4 452 301.6 452 305.5L452 307.3C452 311.2 448.8 314.4 444.9 314.4L444.9 314.4C441 314.4 437.8 311.2 437.8 307.3L437.8 305.5C437.8 301.6 441 298.4 444.9 298.4Z" fill="#FFFFFF"/><path d="M452 305.5 452 335.7C452 339.6 448.8 342.8 444.9 342.8 441 342.8 437.8 339.6 437.8 335.7L437.8 305.5 452 305.5Z" fill="#7C7C7C"/><circle cx="445" cy="302.1" r="1.8" fill="#3C3C3C"/></g></g><g><rect x="467.9" y="273.4" width="8.5" height="32.3" fill="#3C3C3C" transform="matrix(-1 -1.22465e-16 1.22465e-16 -1 944.224 579.222)"/><g><path d="M471.8 298.4 471.8 298.4C475.7 298.4 478.9 301.6 478.9 305.5L478.9 307.3C478.9 311.2 475.7 314.4 471.8 314.4L471.8 314.4C467.9 314.4 464.7 311.2 464.7 307.3L464.7 305.5C464.7 301.6 467.9 298.4 471.8 298.4Z" fill="#FFFFFF"/><path d="M478.9 305.5 478.9 335.7C478.9 339.6 475.7 342.8 471.8 342.8 467.9 342.8 464.7 339.6 464.7 335.7L464.7 305.5 478.9 305.5Z" fill="#7C7C7C"/><circle cx="471.9" cy="302.1" r="1.8" fill="#3C3C3C"/></g></g><g><rect x="496.5" y="273.4" width="8.5" height="32.3" fill="#3C3C3C" transform="matrix(-1 -1.22465e-16 1.22465e-16 -1 1001.56 579.222)"/><g><path d="M500.5 298.4 500.5 298.4C504.4 298.4 507.6 301.6 507.6 305.5L507.6 307.3C507.6 311.2 504.4 314.4 500.5 314.4L500.5 314.4C496.6 314.4 493.4 311.2 493.4 307.3L493.4 305.5C493.4 301.6 496.6 298.4 500.5 298.4Z" fill="#FFFFFF"/><path d="M507.6 305.5 507.6 335.7C507.6 339.6 504.4 342.8 500.5 342.8 496.6 342.8 493.4 339.6 493.4 335.7L493.4 305.5 507.6 305.5Z" fill="#7C7C7C"/><circle cx="500.6" cy="302.1" r="1.8" fill="#3C3C3C"/></g></g><g><rect x="554.4" y="273.4" width="8.5" height="32.3" fill="#3C3C3C" transform="matrix(-1 -1.22465e-16 1.22465e-16 -1 1117.24 579.222)"/><g><path d="M558.3 298.4 558.3 298.4C562.2 298.4 565.4 301.6 565.4 305.5L565.4 307.3C565.4 311.2 562.2 314.4 558.3 314.4L558.3 314.4C554.4 314.4 551.2 311.2 551.2 307.3L551.2 305.5C551.2 301.6 554.4 298.4 558.3 298.4Z" fill="#FFFFFF"/><path d="M565.4 305.5 565.4 335.7C565.4 339.6 562.2 342.8 558.3 342.8 554.4 342.8 551.2 339.6 551.2 335.7L551.2 305.5 565.4 305.5Z" fill="#7C7C7C"/><circle cx="558.4" cy="302.1" r="1.8" fill="#3C3C3C"/></g></g><g><rect x="583" y="273.4" width="8.5" height="32.3" fill="#3C3C3C" transform="matrix(-1 -1.22465e-16 1.22465e-16 -1 1174.57 579.222)"/><g><path d="M587 298.4 587 298.4C590.9 298.4 594.1 301.6 594.1 305.5L594.1 307.3C594.1 311.2 590.9 314.4 587 314.4L587 314.4C583.1 314.4 579.9 311.2 579.9 307.3L579.9 305.5C579.9 301.6 583.1 298.4 587 298.4Z" fill="#FFFFFF"/><path d="M594.1 305.5 594.1 335.7C594.1 339.6 590.9 342.8 587 342.8 583.1 342.8 579.9 339.6 579.9 335.7L579.9 305.5 594.1 305.5Z" fill="#7C7C7C"/><circle cx="587.1" cy="302.1" r="1.8" fill="#3C3C3C"/></g></g><g><rect x="610" y="273.4" width="8.5" height="32.3" fill="#3C3C3C" transform="matrix(-1 -1.22465e-16 1.22465e-16 -1 1228.49 579.222)"/><g><path d="M614 298.4 614 298.4C617.9 298.4 621.1 301.6 621.1 305.5L621.1 307.3C621.1 311.2 617.9 314.4 614 314.4L614 314.4C610.1 314.4 606.9 311.2 606.9 307.3L606.9 305.5C606.9 301.6 610.1 298.4 614 298.4Z" fill="#FFFFFF"/><path d="M621.1 305.5 621.1 335.7C621.1 339.6 617.9 342.8 614 342.8 610.1 342.8 606.9 339.6 606.9 335.7L606.9 305.5 621.1 305.5Z" fill="#7C7C7C"/><circle cx="614" cy="302.1" r="1.8" fill="#3C3C3C"/></g></g><g><rect x="638.7" y="273.4" width="8.5" height="32.3" fill="#3C3C3C" transform="matrix(-1 -1.22465e-16 1.22465e-16 -1 1285.82 579.222)"/><g><path d="M642.6 298.4 642.6 298.4C646.5 298.4 649.7 301.6 649.7 305.5L649.7 307.3C649.7 311.2 646.5 314.4 642.6 314.4L642.6 314.4C638.7 314.4 635.5 311.2 635.5 307.3L635.5 305.5C635.5 301.6 638.7 298.4 642.6 298.4Z" fill="#FFFFFF"/><path d="M649.7 305.5 649.7 335.7C649.7 339.6 646.5 342.8 642.6 342.8 638.7 342.8 635.5 339.6 635.5 335.7L635.5 305.5 649.7 305.5Z" fill="#7C7C7C"/><circle cx="642.7" cy="302.1" r="1.8" fill="#3C3C3C"/></g></g><rect x="426.8" y="171.4" width="9.1" height="34.3" fill="#D3D3D3"/><rect x="454.2" y="171.4" width="9.1" height="34.3" fill="#D3D3D3"/><rect x="481.7" y="171.4" width="9.1" height="34.3" fill="#D3D3D3"/><rect x="568.5" y="171.4" width="9.1" height="34.3" fill="#3C3C3C"/><rect x="596" y="171.4" width="9.1" height="34.3" fill="#3C3C3C"/><rect x="723.2" y="330.8" width="9.1" height="92.8" fill="#3C3C3C"/><rect x="723.2" y="441.6" width="9.1" height="28.8" fill="#3C3C3C"/><rect x="794.2" y="441.6" width="9.1" height="28.8" fill="#3C3C3C"/><rect x="794.2" y="330.8" width="9.1" height="92.8" fill="#3C3C3C"/><rect x="623.4" y="171.4" width="9.1" height="34.3" fill="#3C3C3C"/><g><rect x="398.5" y="61" width="262.3" height="110.3" fill="#FFFFFF"/><path d="M454.8 91.8C454.8 102.5 446.1 111.2 435.4 111.2 424.7 111.2 416 102.5 416 91.8 416 81.1 424.7 72.4 435.4 72.4 446.1 72.4 454.8 81.1 454.8 91.8Z" fill="#5B5B5B"/><path d="M549 91.8C549 102.5 540.3 111.2 529.6 111.2 518.9 111.2 510.2 102.5 510.2 91.8 510.2 81.1 518.9 72.4 529.6 72.4 540.3 72.4 549 81.1 549 91.8Z" fill="#5B5B5B"/><path d="M641.6 91.8C641.6 102.5 632.9 111.2 622.2 111.2 611.5 111.2 602.8 102.5 602.8 91.8 602.8 81.1 611.5 72.4 622.2 72.4 632.9 72.4 641.6 81.1 641.6 91.8Z" fill="#5B5B5B"/><path d="M502.8 141C502.8 151.7 494.1 160.4 483.4 160.4 472.7 160.4 464 151.7 464 141 464 130.3 472.7 121.6 483.4 121.6 494.1 121.6 502.8 130.3 502.8 141Z" fill="#5B5B5B"/><path d="M595.3 141C595.3 151.7 586.6 160.4 575.9 160.4 565.2 160.4 556.5 151.7 556.5 141 556.5 130.3 565.2 121.6 575.9 121.6 586.6 121.6 595.3 130.3 595.3 141Z" fill="#5B5B5B"/><path d="M444.5 91.8C444.5 96.9 440.4 101 435.3 101 430.2 101 426.1 96.9 426.1 91.8 426.1 86.7 430.2 82.6 435.3 82.6 440.4 82.6 444.5 86.8 444.5 91.8Z" fill="#ADADAD"/><path d="M492.5 141C492.5 146.1 488.4 150.2 483.3 150.2 478.2 150.2 474.1 146.1 474.1 141 474.1 135.9 478.2 131.8 483.3 131.8 488.4 131.8 492.5 135.9 492.5 141Z" fill="#ADADAD"/><path d="M631.4 91.8C631.4 96.9 627.3 101 622.2 101 617.1 101 613 96.9 613 91.8 613 86.7 617.1 82.6 622.2 82.6 627.3 82.6 631.4 86.8 631.4 91.8Z" fill="#ADADAD"/><path d="M538.8 91.8C538.8 96.9 534.7 101 529.6 101 524.5 101 520.4 96.9 520.4 91.8 520.4 86.7 524.5 82.6 529.6 82.6 534.7 82.6 538.8 86.8 538.8 91.8Z" fill="#ADADAD"/><path d="M585.1 141C585.1 146.1 581 150.2 575.9 150.2 570.8 150.2 566.7 146.1 566.7 141 566.7 135.9 570.8 131.8 575.9 131.8 581 131.8 585.1 135.9 585.1 141Z" fill="#ADADAD"/></g><rect x="398.5" y="205.7" width="120.6" height="67.7" fill="#5B5B5B"/><rect x="417" y="224.1" width="83.6" height="31" fill="#7C7C7C"/><rect x="540.2" y="205.7" width="120.6" height="67.7" fill="#5B5B5B"/><rect x="558.7" y="224.1" width="83.6" height="31" fill="#7C7C7C"/><rect x="437.8" y="224.1" width="13.4" height="31" fill="#D3D3D3"/><rect x="467.4" y="224.1" width="13.4" height="31" fill="#D3D3D3"/><rect x="593.8" y="224.1" width="13.4" height="31" fill="#D3D3D3"/><rect x="377.8" y="441.6" width="307.8" height="28.8" fill="#7C7C7C"/><rect x="685.6" y="24.9" width="19" height="256.8" fill="#D3D3D3"/><rect x="685.6" y="281.7" width="155.5" height="49.5" fill="#FFFFFF"/><rect x="716.3" y="43.2" width="124.8" height="60.5" fill="#5B5B5B"/><g><circle cx="750.7" cy="73.9" r="19.4" fill="#FFFFFF"/><path d="M759.9 73.9C759.9 79 755.8 83.1 750.7 83.1 745.6 83.1 741.5 79 741.5 73.9 741.5 68.8 745.6 64.7 750.7 64.7 755.8 64.8 759.9 68.9 759.9 73.9Z" fill="#ADADAD"/></g><rect x="716.3" y="123.2" width="124.8" height="60.5" fill="#5B5B5B"/><g><path d="M770.1 154C770.1 164.7 761.4 173.4 750.7 173.4 740 173.4 731.3 164.7 731.3 154 731.3 143.3 740 134.6 750.7 134.6 761.4 134.6 770.1 143.3 770.1 154Z" fill="#FFFFFF"/><path d="M759.9 154C759.9 159.1 755.8 163.2 750.7 163.2 745.6 163.2 741.5 159.1 741.5 154 741.5 148.9 745.6 144.8 750.7 144.8 755.8 144.8 759.9 148.9 759.9 154Z" fill="#ADADAD"/></g><rect x="716.3" y="203" width="124.8" height="60.5" fill="#5B5B5B"/><g><circle cx="750.7" cy="233.7" r="19.4" fill="#FFFFFF"/><path d="M759.9 233.7C759.9 238.8 755.8 242.9 750.7 242.9 745.6 242.9 741.5 238.8 741.5 233.7 741.5 228.6 745.6 224.5 750.7 224.5 755.8 224.6 759.9 228.7 759.9 233.7Z" fill="#ADADAD"/></g><rect x="785.6" y="60.5" width="55.5" height="7.5" fill="#D3D3D3"/><rect x="785.6" y="79.9" width="55.5" height="7.5" fill="#D3D3D3"/><rect x="785.6" y="139.9" width="55.5" height="7.5" fill="#D3D3D3"/><rect x="785.6" y="159.3" width="55.5" height="7.5" fill="#D3D3D3"/><rect x="785.6" y="219.8" width="55.5" height="7.5" fill="#D3D3D3"/><rect x="785.6" y="239.2" width="55.5" height="7.5" fill="#D3D3D3"/><rect x="707.1" y="348" width="44.7" height="60.3" fill="#5B5B5B"/><rect x="774.2" y="348" width="44.7" height="60.3" fill="#5B5B5B"/></g><g><path d="M393.2 275.8C365.1 275.7 360.6 279.3 362.8 275.8 365 272.3 378.6 253.4 377.5 245.2 376.4 237 370.3 248.9 344.9 267.1 319.4 285.3 266.1 363.4 266.1 363.4 266.1 363.4 315.7 388.9 320.9 383.3 326.2 377.7 339.6 344.5 355 339.9 370.3 335.3 423.1 319.8 432.3 307.1 441.5 294.5 421.3 275.9 393.2 275.8Z" fill="#FFB680"/><g><path d="M356 805C356 805 355.2 776.9 361.9 748.4 369.4 716.7 378.4 694.5 386.8 698.1 395.2 701.7 382.2 729.4 377.7 753.6 373.8 774.5 369.9 809.5 369.9 809.5L356 805Z" fill="#AD0E13"/><path d="M397.8 818.8C397.8 818.8 415.2 796.7 426.8 769.9 439.7 740 445.7 716.8 436.7 714.7 427.8 712.6 421.8 742.5 411 764.7 401.7 783.8 383.9 814.3 383.9 814.3L397.8 818.8Z" fill="#AD0E13"/></g><rect x="276.4" y="758.3" width="132.7" height="198.9" fill="#FCB33D"/><path d="M420.8 1550.6C420.8 1550.6 427.5 1579 425.3 1599.3 423.1 1619.7 422.2 1627.1 372.9 1627.6 323.6 1628.1 312.1 1621.9 312.6 1592.2 313.1 1562.5 314.9 1537.1 314.9 1537.1L420.8 1550.6Z" fill="#1599EA"/><path d="M119.3 1543.5C119.3 1543.5 126 1571.9 123.8 1592.2 121.6 1612.6 120.7 1620 71.4 1620.5 22.1 1621 10.6 1614.8 11.1 1585.1 11.6 1555.4 13.4 1530 13.4 1530L119.3 1543.5Z" fill="#1599EA"/><path d="M288.5 241C288.5 241 285 265.8 291 293.9 296.2 318.3 308.2 340.2 308.2 340.2 308.2 340.2 255 367.5 224.2 362.2 193.5 356.9 170.5 338.3 170.5 338.3 170.5 338.3 191 308.3 193.6 294 196.2 279.7 196.2 241.1 196.2 241.1L288.5 241.1Z" fill="#FFB680"/><path d="M158.7 153.6C158.7 210.1 192.1 274 239.7 274 287.3 274 331.1 210.2 331.1 153.6 331.1 97.1 316.2 52.3 244.9 51.2 165.2 50 158.7 97.1 158.7 153.6Z" fill="#7E3422"/><path d="M495.4 534.2C495.4 534.2 488.6 439 485.7 397.7 484.4 379.5 497.2 369.9 503.5 360 508 352.9 520.2 308.4 527.3 304.3 542.5 295.4 554.8 338.1 550.8 362.7 547.1 385.6 536.1 409 535.3 416.1 534.5 422.8 539.8 475.8 542.6 493.2 551.6 549.6 549.7 579.3 532 602.3 508.9 632.2 487.7 631.7 470.8 619.7 451 605.7 429.3 576.3 429.3 576.3L495.4 534.2Z" fill="#FFB680"/><g><path d="M384.5 426.3C382.8 396.4 352 389.3 355.5 461.8 359 534.4 357 610 336.6 628.5 316.2 647.1 219 671 186.3 672.5 167.1 673.4 129.6 670.2 101.9 667.4 99.8 615.6 96.9 550.2 94.2 512.7 91.6 477.2 65.6 408.6 87.9 370.6 103 344.8 142.9 317.6 189.1 306.7 231.2 327.2 294.5 306.7 294.5 306.7 294.5 306.7 396.8 342 413.9 362.7 437.8 391.6 496.7 505.4 502.4 525.3 502.5 544.1 486.4 561.3 470.7 573.7 458 560.6 439.5 540.1 425.5 519.1 401.9 483.7 386.2 456.3 384.5 426.3Z" fill="#1599EA"/><path d="M378.8 504.9C364.4 561.3 366.3 766 366.3 766L174.7 775.5 104.8 744.8C104.8 744.8 103.6 710.8 101.9 667.4 129.6 670.2 167.1 673.4 186.3 672.5 219 671 316.2 647.1 336.6 628.6 357 610.1 359 534.5 355.5 461.9 352 389.3 382.8 396.4 384.5 426.4 386.2 456.3 401.9 483.7 425.4 519.2 439.4 540.3 457.9 560.7 470.6 573.8 455.7 585.6 441.2 593 441.2 593 441.2 593 395.3 530.2 378.8 504.9Z" fill="#056CD3"/></g><g><path d="M332.7 1319.2C352.4 1317 351.1 1293.9 337 1268.7 322.9 1243.5 294 1107.8 283.4 1067.6 272.8 1027.4 258.1 932.2 269.7 921.6 281.4 911 300.3 883.5 290.5 872.7 280.7 861.9 243.1 874.7 211.3 877.9 176.5 881.5 145.9 858.1 136.7 872.7 127.5 887.3 156.5 921.6 172.8 938.6 189 955.7 156.6 1048.5 149.4 1084 142.2 1119.5 122.7 1236.8 97.3 1257.9 71.9 1279 80.4 1279.1 97.3 1297.4 114.2 1315.7 126.9 1319.3 112.1 1378.5 101.8 1419.9 92.5 1502.4 92.1 1549.5L0 1545.1C4.4 1490.2 34 1147.3 55 1021 78.9 877.2 102.6 724.4 102.6 724.4 102.6 724.4 179.2 730 204.5 731.5 239.9 733.6 365.8 723.5 365.8 723.5 365.8 723.5 398.2 1037.3 402.7 1124.6 406.1 1190.9 437.7 1446.7 435.8 1550.5L351.3 1550.5C348 1507.2 341.6 1435.2 334.5 1411.8 324 1377.7 313.1 1321.4 332.7 1319.2Z" fill="#3C3C3C"/><path d="M279.5 1205.6C267.1 1144.7 219.5 905.1 219.5 905.1 219.5 905.1 183.7 1177.7 176 1205.6 169.3 1229.9 140.6 1487.9 132.1 1550.6L92 1549.5C92.4 1502.4 101.7 1419.8 112 1378.5 126.8 1319.3 114.1 1315.7 97.2 1297.4 80.3 1279.1 71.8 1279.1 97.2 1257.9 122.6 1236.8 142.1 1119.4 149.3 1084 156.5 1048.5 188.9 955.7 172.7 938.6 156.5 921.5 127.4 887.2 136.6 872.7 145.8 858.1 176.4 881.5 211.2 877.9 243 874.6 280.6 861.8 290.4 872.7 300.2 883.5 281.2 911 269.6 921.6 257.9 932.2 272.6 1027.4 283.3 1067.6 293.9 1107.8 322.8 1243.5 336.9 1268.7 351 1293.9 352.3 1317 332.6 1319.2 312.9 1321.4 323.8 1377.7 334.3 1412 341.4 1435.4 347.8 1507.4 351.1 1550.7L312 1550.7C295.7 1464.4 289.3 1253.5 279.5 1205.6Z" fill="#30302E"/></g><path d="M487.1 330.6C487.8 326.4 497.8 328.3 497.8 339.1 497.8 350 502.1 374.3 502.6 376.6 503 378.9 486.3 407.8 486.3 407.8 486.3 407.8 482 382.7 483.4 368.2 484.9 353.8 485.6 339.7 487.1 330.6Z" fill="#FFB680"/><path d="M97.3 758.3 369.3 758.3 366.3 714.7 103.7 714.7Z" fill="#FCB33D"/><path d="M316.2 314.6C316.2 314.6 308.3 284.3 263.9 290.6 219.5 296.9 183.8 288 183.8 288L170.6 312C170.6 312 189.4 343.7 231.2 338.1 272.9 332.6 316.2 314.6 316.2 314.6Z" fill="#056CD3"/><path d="M335.3 143.6C333.9 74.9 318 19.7 243.4 19.7 172 19.7 153 74.8 151.5 143.6L335.3 143.6Z" fill="#1599EA"/><rect x="143.4" y="130.1" width="200" height="18.5" fill="#056CD3"/><path d="M223.1 95.9 185.8 38.9C185.8 38.9 193.1 23.7 203.4 19.8 223.4 12.2 230.9 20.9 230.9 20.9L223.1 95.9Z" fill="#056CD3"/><path d="M265 95.9 302.3 38.9C302.3 38.9 295 23.7 284.7 19.8 264.7 12.2 257.2 20.9 257.2 20.9L265 95.9Z" fill="#056CD3"/></g></g></svg>